<svg width="28" height="28" viewBox="0 0 28 28" fill="currentColor" xmlns="http://www.w3.org/2000/svg">
<path d="M14 7.33268C13.6463 7.33268 13.3072 7.47316 13.0572 7.72321C12.8071 7.97326 12.6666 8.31239 12.6666 8.66602V13.9993C12.6666 14.353 12.8071 14.6921 13.0572 14.9422C13.3072 15.1922 13.6463 15.3327 14 15.3327C14.3536 15.3327 14.6927 15.1922 14.9428 14.9422C15.1928 14.6921 15.3333 14.353 15.3333 13.9993V8.66602C15.3333 8.31239 15.1928 7.97326 14.9428 7.72321C14.6927 7.47316 14.3536 7.33268 14 7.33268ZM15.2266 18.826C15.1974 18.7411 15.1571 18.6603 15.1066 18.586L14.9466 18.386C14.7591 18.201 14.521 18.0757 14.2624 18.0258C14.0037 17.976 13.7361 18.0039 13.4933 18.106C13.3317 18.1735 13.1829 18.2682 13.0533 18.386C12.9297 18.5106 12.832 18.6584 12.7656 18.8208C12.6993 18.9833 12.6656 19.1572 12.6666 19.3327C12.6687 19.5069 12.705 19.6791 12.7733 19.8393C12.8332 20.0048 12.9287 20.1551 13.0531 20.2795C13.1776 20.4039 13.3278 20.4995 13.4933 20.5593C13.6529 20.6299 13.8255 20.6663 14 20.6663C14.1745 20.6663 14.347 20.6299 14.5066 20.5593C14.6721 20.4995 14.8224 20.4039 14.9468 20.2795C15.0712 20.1551 15.1667 20.0048 15.2266 19.8393C15.295 19.6791 15.3312 19.5069 15.3333 19.3327C15.3398 19.2439 15.3398 19.1548 15.3333 19.066C15.3103 18.981 15.2744 18.9 15.2266 18.826ZM14 0.666016C11.3629 0.666016 8.78502 1.448 6.59236 2.91309C4.39971 4.37817 2.69074 6.46055 1.68157 8.8969C0.672403 11.3333 0.408359 14.0141 0.922828 16.6006C1.4373 19.187 2.70717 21.5627 4.57188 23.4274C6.43658 25.2921 8.81235 26.562 11.3988 27.0765C13.9852 27.591 16.6661 27.3269 19.1024 26.3177C21.5388 25.3086 23.6211 23.5996 25.0862 21.407C26.5513 19.2143 27.3333 16.6364 27.3333 13.9993C27.3333 12.2484 26.9884 10.5146 26.3184 8.8969C25.6483 7.27923 24.6662 5.80937 23.4281 4.57126C22.1899 3.33314 20.7201 2.35102 19.1024 1.68096C17.4847 1.01089 15.7509 0.666016 14 0.666016ZM14 24.666C11.8903 24.666 9.82801 24.0404 8.07388 22.8684C6.31976 21.6963 4.95259 20.0304 4.14525 18.0813C3.33792 16.1322 3.12668 13.9875 3.53826 11.9184C3.94983 9.84926 4.96573 7.94864 6.45749 6.45688C7.94925 4.96512 9.84987 3.94922 11.919 3.53764C13.9881 3.12606 16.1328 3.3373 18.0819 4.14463C20.031 4.95197 21.6969 6.31914 22.869 8.07327C24.041 9.82739 24.6666 11.8897 24.6666 13.9993C24.6666 16.8283 23.5428 19.5414 21.5424 21.5418C19.5421 23.5422 16.8289 24.666 14 24.666Z" fill="currentColor"/>
</svg>
