<svg width="26" height="24" viewBox="0 0 26 24" fill="currentColor" xmlns="http://www.w3.org/2000/svg">
<path d="M13 16.6673C12.7693 16.6673 12.5437 16.7357 12.3519 16.8639C12.16 16.9921 12.0105 17.1743 11.9222 17.3875C11.8339 17.6007 11.8108 17.8353 11.8558 18.0616C11.9008 18.2879 12.0119 18.4958 12.1751 18.6589C12.3382 18.8221 12.5461 18.9332 12.7724 18.9782C12.9988 19.0232 13.2333 19.0001 13.4465 18.9118C13.6597 18.8235 13.8419 18.674 13.9701 18.4821C14.0983 18.2903 14.1667 18.0647 14.1667 17.834C14.1667 17.5246 14.0438 17.2278 13.825 17.009C13.6062 16.7902 13.3095 16.6673 13 16.6673ZM25.4484 18.3823L16.0567 2.04898C15.7532 1.50474 15.3098 1.05143 14.7724 0.735856C14.2351 0.420286 13.6232 0.253906 13 0.253906C12.3769 0.253906 11.765 0.420286 11.2277 0.735856C10.6903 1.05143 10.2469 1.50474 9.94338 2.04898L0.610044 18.3823C0.295972 18.912 0.12721 19.5152 0.120795 20.1309C0.114381 20.7467 0.270541 21.3533 0.57351 21.8894C0.87648 22.4255 1.31553 22.8722 1.84634 23.1843C2.37715 23.4965 2.98093 23.6631 3.59671 23.6673H22.4034C23.0241 23.6734 23.6353 23.5143 24.1743 23.2064C24.7132 22.8984 25.1606 22.4526 25.4705 21.9148C25.7804 21.3769 25.9417 20.7663 25.9378 20.1455C25.9339 19.5248 25.765 18.9163 25.4484 18.3823ZM23.43 20.7156C23.3278 20.8976 23.1786 21.0488 22.998 21.1534C22.8174 21.2581 22.6121 21.3124 22.4034 21.3106H3.59671C3.38801 21.3124 3.18266 21.2581 3.00208 21.1534C2.8215 21.0488 2.67231 20.8976 2.57004 20.7156C2.46765 20.5383 2.41374 20.3371 2.41374 20.1323C2.41374 19.9275 2.46765 19.7263 2.57004 19.549L11.9034 3.21564C12.0013 3.02454 12.15 2.86416 12.3332 2.75218C12.5164 2.64019 12.727 2.58093 12.9417 2.58093C13.1564 2.58093 13.367 2.64019 13.5502 2.75218C13.7334 2.86416 13.8821 3.02454 13.98 3.21564L23.3717 19.549C23.4875 19.7238 23.554 19.9266 23.5642 20.136C23.5745 20.3454 23.5281 20.5537 23.43 20.739V20.7156ZM13 7.33398C12.6906 7.33398 12.3939 7.45689 12.1751 7.67568C11.9563 7.89448 11.8334 8.19122 11.8334 8.50064V13.1673C11.8334 13.4767 11.9563 13.7735 12.1751 13.9923C12.3939 14.2111 12.6906 14.334 13 14.334C13.3095 14.334 13.6062 14.2111 13.825 13.9923C14.0438 13.7735 14.1667 13.4767 14.1667 13.1673V8.50064C14.1667 8.19122 14.0438 7.89448 13.825 7.67568C13.6062 7.45689 13.3095 7.33398 13 7.33398Z" fill="currentColor"/>
</svg>
