<svg width="12" height="14" viewBox="0 0 12 14" fill="none" xmlns="http://www.w3.org/2000/svg">
    <path
        d="M11.9229 6.61921C11.8753 6.49646 11.804 6.38431 11.7129 6.28921L6.71293 1.28921C6.61969 1.19597 6.509 1.12201 6.38718 1.07155C6.26536 1.02109 6.13479 0.995117 6.00293 0.995117C5.73663 0.995117 5.48123 1.10091 5.29293 1.28921C5.19969 1.38245 5.12573 1.49314 5.07527 1.61496C5.02481 1.73678 4.99884 1.86735 4.99884 1.99921C4.99884 2.26551 5.10463 2.52091 5.29293 2.70921L8.59293 5.99921H1.00293C0.737713 5.99921 0.483359 6.10457 0.295823 6.2921C0.108287 6.47964 0.00292969 6.73399 0.00292969 6.99921C0.00292969 7.26443 0.108287 7.51878 0.295823 7.70632C0.483359 7.89385 0.737713 7.99921 1.00293 7.99921H8.59293L5.29293 11.2892C5.1992 11.3822 5.12481 11.4928 5.07404 11.6146C5.02327 11.7365 4.99713 11.8672 4.99713 11.9992C4.99713 12.1312 5.02327 12.2619 5.07404 12.3838C5.12481 12.5056 5.1992 12.6162 5.29293 12.7092C5.38589 12.8029 5.49649 12.8773 5.61835 12.9281C5.74021 12.9789 5.87092 13.005 6.00293 13.005C6.13494 13.005 6.26565 12.9789 6.38751 12.9281C6.50937 12.8773 6.61997 12.8029 6.71293 12.7092L11.7129 7.70921C11.804 7.61411 11.8753 7.50196 11.9229 7.37921C12.0229 7.13575 12.0229 6.86267 11.9229 6.61921Z"
        fill="black" />
</svg>
    