<svg width="14" height="20" viewBox="0 0 14 20" fill="currentColor" xmlns="http://www.w3.org/2000/svg">
    <path d="M3.29 4.21L5.29 6.21C5.38296 6.30373 5.49356 6.37812 5.61542 6.42889C5.73728 6.47966 5.86799 6.5058 6 6.5058C6.13201 6.5058 6.26272 6.47966 6.38458 6.42889C6.50644 6.37812 6.61704 6.30373 6.71 6.21C6.80373 6.11704 6.87812 6.00644 6.92889 5.88458C6.97966 5.76272 7.0058 5.63201 7.0058 5.5C7.0058 5.36799 6.97966 5.23728 6.92889 5.11543C6.87812 4.99357 6.80373 4.88297 6.71 4.79L6.41 4.5H10C10.2652 4.5 10.5196 4.39465 10.7071 4.20711C10.8946 4.01957 11 3.76522 11 3.5C11 3.23479 10.8946 2.98043 10.7071 2.7929C10.5196 2.60536 10.2652 2.5 10 2.5H6.41L6.71 2.21C6.80324 2.11676 6.8772 2.00607 6.92766 1.88425C6.97812 1.76243 7.00409 1.63186 7.00409 1.5C7.00409 1.36814 6.97812 1.23758 6.92766 1.11575C6.8772 0.993931 6.80324 0.883241 6.71 0.790002C6.61676 0.696764 6.50607 0.622803 6.38425 0.572343C6.26243 0.521882 6.13186 0.495911 6 0.495911C5.86814 0.495911 5.73757 0.521882 5.61575 0.572343C5.49393 0.622803 5.38324 0.696764 5.29 0.790002L3.29 2.79C3.19896 2.88511 3.12759 2.99725 3.08 3.12C2.97998 3.36346 2.97998 3.63654 3.08 3.88C3.12759 4.00275 3.19896 4.1149 3.29 4.21ZM11 8.5H3C2.20435 8.5 1.44129 8.81607 0.87868 9.37868C0.316071 9.94129 0 10.7044 0 11.5V16.5C0 17.2957 0.316071 18.0587 0.87868 18.6213C1.44129 19.1839 2.20435 19.5 3 19.5H11C11.7956 19.5 12.5587 19.1839 13.1213 18.6213C13.6839 18.0587 14 17.2957 14 16.5V11.5C14 10.7044 13.6839 9.94129 13.1213 9.37868C12.5587 8.81607 11.7956 8.5 11 8.5ZM10.58 10.5L7.7 13.38C7.51307 13.5632 7.26175 13.6659 7 13.6659C6.73825 13.6659 6.48693 13.5632 6.3 13.38L3.42 10.5H10.58ZM12 16.5C12 16.7652 11.8946 17.0196 11.7071 17.2071C11.5196 17.3946 11.2652 17.5 11 17.5H3C2.73478 17.5 2.48043 17.3946 2.29289 17.2071C2.10536 17.0196 2 16.7652 2 16.5V11.91L4.88 14.78C5.15545 15.0632 5.48514 15.2879 5.84939 15.4408C6.21363 15.5938 6.60496 15.6717 7 15.67C7.79538 15.6693 8.55793 15.3528 9.12 14.79L12 11.91V16.5Z"/>
</svg>
