<svg  viewBox="0 0 150 150" fill="none" xmlns="http://www.w3.org/2000/svg">
<circle cx="75" cy="75" r="75" fill="#DCE6EE"/>
<path d="M93.177 110.558C90.7314 109.336 88.6747 107.456 87.2373 105.13C85.7998 102.804 85.0384 100.124 85.0385 97.3901V92.8406H66.8404V97.3901C66.8405 100.124 66.0791 102.804 64.6416 105.13C63.2042 107.456 61.1475 109.336 58.7019 110.558L58.7986 126.757L93.2384 127.199L93.177 110.558Z" fill="#FDC9A6"/>
<path d="M93.1771 110.558C97.5281 112.734 101.157 116.122 103.625 120.313C106.094 124.505 107.297 129.321 107.089 134.181L106.912 142.885L99.5 146L91.5 148.5L75.5 150L59.5 148.5L51.5 146.5L44.5 143.5L44.7896 134.181C44.5821 129.321 45.7852 124.505 48.2538 120.313C50.7224 116.122 54.351 112.734 58.702 110.558L61.8582 115.227C68.5972 125.199 83.2816 125.199 90.0214 115.227L93.1771 110.558Z" fill="#007AF6"/>
<path d="M85.0386 92.8406V95.7864C81.2502 98.2703 76.8187 99.5936 72.2886 99.5938H72.0981C70.2983 99.5792 68.5063 99.3559 66.7581 98.9284C66.8128 98.4175 66.8403 97.904 66.8405 97.3901V92.8406H85.0386Z" fill="#F6BB92"/>
<path d="M96.5647 57.3951H99.1238C99.949 57.3727 100.77 57.5164 101.539 57.8177C102.307 58.1189 103.007 58.5714 103.598 59.1485C104.188 59.7255 104.656 60.4153 104.975 61.1768C105.293 61.9383 105.456 62.7561 105.452 63.5816L105.447 64.6496C105.44 66.2704 104.795 67.8232 103.651 68.9715C102.507 70.1197 100.956 70.7709 99.3353 70.784L96.6716 70.794L96.5647 57.3951Z" fill="#F6BB92"/>
<path d="M47.0746 49.8366L49.7246 64.4126C50.0163 66.0166 49.9846 67.6626 49.6314 69.2542C48.7947 73.0224 48.92 76.9405 49.9957 80.6476C51.0714 84.3546 53.0629 87.7312 55.7866 90.4663C60.11 94.8077 65.9704 97.2699 72.0972 97.319C75.3593 97.3452 78.5905 96.6856 81.5814 95.383C84.5723 94.0804 87.256 92.1638 89.4587 89.7574C94.5593 84.185 97.4133 76.9198 97.4693 69.3656L97.5187 42.7959H46.3677L47.0746 49.8366Z" fill="#FDC9A6"/>
<path d="M62.0195 69.3368C64.061 69.3368 65.716 67.6818 65.716 65.6403C65.716 63.5988 64.061 61.9438 62.0195 61.9438C59.978 61.9438 58.323 63.5988 58.323 65.6403C58.323 67.6818 59.978 69.3368 62.0195 69.3368Z" fill="#5B3719"/>
<path d="M83.5454 69.8519C85.5869 69.8519 87.2418 68.197 87.2418 66.1555C87.2418 64.114 85.5869 62.459 83.5454 62.459C81.5038 62.459 79.8489 64.114 79.8489 66.1555C79.8489 68.197 81.5038 69.8519 83.5454 69.8519Z" fill="#5B3719"/>
<path d="M72.2811 80.0748H72.2166L70.0174 80.0137C69.1919 79.9906 68.3862 79.7548 67.6785 79.329C66.9708 78.9033 66.3851 78.302 65.9779 77.5834C65.5708 76.8649 65.356 76.0534 65.3545 75.2275C65.353 74.4016 65.5647 73.5893 65.9692 72.8692L67.1456 70.7753C67.4428 70.2526 67.9348 69.8689 68.5142 69.708C69.0935 69.5471 69.713 69.6221 70.2372 69.9166C70.7614 70.2111 71.1477 70.7012 71.3116 71.2797C71.4755 71.8582 71.4037 72.478 71.1119 73.0037L69.9356 75.0976C69.9148 75.1347 69.9039 75.1766 69.904 75.2191C69.9041 75.2616 69.9151 75.3034 69.9361 75.3405C69.957 75.3775 69.9872 75.4085 70.0236 75.4304C70.06 75.4524 70.1015 75.4646 70.144 75.4659L72.3434 75.527C72.9467 75.5353 73.522 75.7828 73.9428 76.2153C74.3635 76.6477 74.5953 77.2296 74.587 77.8329C74.5788 78.4362 74.3312 79.0115 73.8987 79.4323C73.4663 79.853 72.8844 80.0848 72.2811 80.0765V80.0748Z" fill="#5B3719"/>
<path d="M79.1013 81.9417L79.0189 84.6259C78.9835 85.7658 78.56 86.8595 77.8186 87.726C77.0771 88.5926 76.0621 89.1801 74.9414 89.3915C74.6385 89.4479 74.3311 89.4765 74.0229 89.4768C72.7635 89.4767 71.5507 89.0003 70.6279 88.1432C70.2374 87.7851 69.9071 87.3665 69.6497 86.9035L67.8811 83.716C71.6998 84.2711 75.5972 83.6586 79.0615 81.9587L79.1013 81.9417Z" fill="#B22122"/>
<path d="M78.2199 87.1877C77.8523 87.7589 77.3719 88.249 76.8081 88.6279C76.2444 89.0069 75.6092 89.2667 74.9414 89.3914C74.6385 89.4478 74.3311 89.4764 74.023 89.4767C72.7636 89.4766 71.5507 89.0003 70.6279 88.1431C71.7104 87.4189 72.9443 86.9519 74.2351 86.7779C75.5258 86.604 76.8393 86.7276 78.0749 87.1394L78.2199 87.1877Z" fill="#CB2527"/>
<path d="M96.8758 112.824L96.7535 113.256C95.4616 117.78 92.7312 121.759 88.9756 124.592C85.2201 127.426 80.6438 128.958 75.9395 128.958C71.2351 128.958 66.6589 127.426 62.9033 124.592C59.1478 121.759 56.4174 117.78 55.1254 113.256L55.0032 112.824C56.169 111.964 57.4066 111.206 58.7025 110.558C60.1273 109.846 61.4266 108.907 62.5497 107.777L63.1838 110.953C63.774 113.902 65.3674 116.555 67.6929 118.461C70.0185 120.367 72.9326 121.409 75.9395 121.409C78.9464 121.409 81.8605 120.367 84.186 118.461C86.5116 116.555 88.105 113.902 88.6952 110.953L89.3293 107.777C90.4523 108.907 91.7517 109.846 93.1765 110.558C94.4723 111.206 95.71 111.964 96.8758 112.824Z" fill="#EAE9E4"/>
<path d="M55.4668 142.885V133.786C55.4668 133.183 55.7065 132.604 56.1331 132.178C56.5597 131.751 57.1383 131.511 57.7416 131.511C58.3449 131.511 58.9235 131.751 59.3501 132.178C59.7767 132.604 60.0163 133.183 60.0163 133.786V142.885H55.4668Z" fill="#005DBB"/>
<path d="M91.8628 142.885V133.786C91.8628 133.183 92.1025 132.604 92.5291 132.178C92.9557 131.751 93.5342 131.511 94.1376 131.511C94.7409 131.511 95.3194 131.751 95.746 132.178C96.1726 132.604 96.4123 133.183 96.4123 133.786V142.885H91.8628Z" fill="#005DBB"/>
<path d="M55.4648 63.2685C55.0771 63.2683 54.6959 63.169 54.3573 62.98C54.0188 62.791 53.7342 62.5186 53.5305 62.1887C53.3268 61.8587 53.2109 61.4822 53.1937 61.0949C53.1764 60.7076 53.2585 60.3222 53.432 59.9755L53.6723 59.4953C54.4677 57.8909 55.6968 56.5416 57.2201 55.6002C58.7435 54.6589 60.5001 54.1633 62.2908 54.1695C62.8941 54.1695 63.4727 54.4092 63.8993 54.8358C64.3259 55.2624 64.5655 55.8409 64.5655 56.4442C64.5655 57.0476 64.3259 57.6261 63.8993 58.0527C63.4727 58.4793 62.8941 58.719 62.2908 58.719C61.3455 58.7158 60.4182 58.9776 59.614 59.4746C58.8099 59.9716 58.1611 60.6839 57.7413 61.5309L57.501 62.0114C57.3119 62.3895 57.0212 62.7073 56.6616 62.9294C56.3019 63.1514 55.8875 63.2689 55.4648 63.2685Z" fill="#5B3719"/>
<path d="M89.5898 63.2685C89.167 63.2688 88.7526 63.1513 88.3929 62.9291C88.0332 62.707 87.7426 62.389 87.5536 62.0109L87.3133 61.5312C86.8935 60.6841 86.2447 59.9717 85.4406 59.4746C84.6365 58.9776 83.7091 58.7158 82.7638 58.719C82.1605 58.719 81.5819 58.4793 81.1553 58.0527C80.7287 57.6261 80.489 57.0476 80.489 56.4442C80.489 55.8409 80.7287 55.2624 81.1553 54.8358C81.5819 54.4092 82.1605 54.1695 82.7638 54.1695C84.5546 54.1633 86.3113 54.659 87.8347 55.6005C89.3581 56.542 90.5872 57.8916 91.3825 59.4961L91.6225 59.9761C91.796 60.3228 91.8779 60.708 91.8606 61.0953C91.8433 61.4825 91.7273 61.859 91.5237 62.1888C91.32 62.5186 91.0355 62.791 90.697 62.9799C90.3585 63.1689 89.9774 63.2682 89.5898 63.2685Z" fill="#5B3719"/>
<path d="M50.8446 11.3237C47.5829 11.8081 44.496 13.1067 41.8689 15.0996C39.2419 17.0925 37.1595 19.7154 35.8142 22.7259C34.5627 25.5266 33.9854 28.5818 34.1286 31.646C34.2718 34.7103 35.1315 37.6983 36.6388 40.3701C38.5132 43.6929 41.3254 46.3896 44.7239 48.1231C48.1223 49.8566 51.9564 50.5499 55.7467 50.1166L60.7512 49.5448C61.9644 51.4404 63.696 52.9481 65.7406 53.8888C67.7852 54.8296 70.0567 55.1639 72.2856 54.852L77.5221 54.119L79.2566 55.4196C80.6243 56.4454 82.1992 57.1607 83.8715 57.5156C85.5439 57.8705 87.2736 57.8565 88.94 57.4746L95.8197 55.8979L97.8528 63.7759C101.047 60.9576 103.333 57.2546 104.421 53.136C105.509 49.0173 105.35 44.6684 103.964 40.6402L103.129 38.2119L103.044 35.0036C102.961 31.8627 102.04 28.801 100.375 26.1361C98.7109 23.4712 96.3637 21.3001 93.5774 19.8481C90.3204 18.1514 86.6145 17.5151 82.9781 18.0283L75.7433 19.0491L73.9448 17.6003C70.7363 15.0161 67.0274 13.1242 63.0517 12.044C59.076 10.9638 54.9197 10.7185 50.8446 11.3237Z" fill="#7A4922"/>
</svg>
