<svg viewBox="0 0 29 18" fill="currentColor" xmlns="http://www.w3.org/2000/svg">
    <path d="M8.64797 7.01089C8.64797 7.35469 8.68288 7.63391 8.74919 7.83984C8.82249 8.04402 8.91673 8.2674 9.04587 8.50998C9.08708 8.57407 9.10945 8.64845 9.11044 8.72463C9.11044 8.81713 9.0546 8.91137 8.93593 9.00386L8.34955 9.39477C8.27917 9.44559 8.19545 9.47471 8.10872 9.47854C8.01448 9.47854 7.92199 9.43317 7.8295 9.3494C7.70407 9.21443 7.59186 9.06775 7.49443 8.91137C7.3912 8.73231 7.29571 8.5489 7.20822 8.36164C6.48224 9.21851 5.57301 9.64782 4.47705 9.64782C3.69697 9.64782 3.07395 9.4227 2.62021 8.97594C2.16472 8.52918 1.93262 7.93233 1.93262 7.18715C1.93262 6.39485 2.21184 5.75264 2.77727 5.26748C3.34445 4.78233 4.09661 4.5415 5.05295 4.5415C5.36708 4.5415 5.69343 4.56942 6.03722 4.61479C6.38102 4.66191 6.73528 4.73696 7.10526 4.82072V4.14011C7.10526 3.43158 6.95692 2.9377 6.66897 2.64975C6.37229 2.36005 5.86969 2.22044 5.15417 2.22044C4.82957 2.22044 4.49625 2.25884 4.15245 2.3426C3.81088 2.4239 3.47554 2.52945 3.14899 2.65848C3.04356 2.70621 2.93513 2.74702 2.82439 2.78064C2.77641 2.79649 2.72652 2.80588 2.67605 2.80856C2.54517 2.80856 2.4806 2.71432 2.4806 2.51886V2.06163C2.4806 1.91329 2.49805 1.79986 2.54517 1.73703C2.61549 1.65141 2.70523 1.5838 2.80694 1.53983C3.12979 1.3723 3.52071 1.23268 3.97619 1.12099C4.42993 0.998834 4.91334 0.944734 5.42467 0.944734C6.52936 0.944734 7.33736 1.19604 7.85742 1.69864C8.36875 2.20125 8.62878 2.96562 8.62878 3.99177V7.01089H8.64623H8.64797ZM4.87669 8.42621C5.1821 8.42621 5.49797 8.37037 5.83304 8.25868C6.16811 8.14699 6.46479 7.94106 6.71434 7.66184C6.86399 7.49039 6.97208 7.28675 7.03022 7.06674C7.08606 6.84161 7.12445 6.57286 7.12445 6.25524V5.86433C6.84258 5.79597 6.55709 5.74353 6.26933 5.70726C5.97996 5.66983 5.68853 5.65059 5.39675 5.64967C4.77373 5.64967 4.31999 5.77183 4.01284 6.02313C3.70569 6.27444 3.5591 6.6287 3.5591 7.09466C3.5591 7.53095 3.66905 7.85729 3.90115 8.08242C4.12453 8.31452 4.44913 8.42621 4.87669 8.42621ZM12.3337 9.43317C12.1662 9.43317 12.0545 9.40524 11.9812 9.33893C11.9062 9.28308 11.8416 9.15394 11.7858 8.97594L9.60432 1.77368C9.56189 1.6529 9.53377 1.52755 9.52055 1.40022C9.52055 1.25188 9.59385 1.16811 9.74219 1.16811H10.6532C10.8277 1.16811 10.9498 1.19604 11.0144 1.26061C11.0894 1.31645 11.1453 1.44734 11.2011 1.6236L12.7613 7.79272L14.2098 1.6236C14.2552 1.43861 14.311 1.31645 14.386 1.26061C14.4975 1.19237 14.6273 1.16008 14.7578 1.16811H15.5012C15.6757 1.16811 15.7979 1.19604 15.8712 1.26061C15.9462 1.31645 16.0108 1.44734 16.0492 1.6236L17.5151 7.86776L19.1207 1.6236C19.1505 1.48851 19.2148 1.36345 19.3074 1.26061C19.4156 1.19219 19.5426 1.15981 19.6704 1.16811H20.5342C20.6826 1.16811 20.7663 1.24316 20.7663 1.40022C20.7663 1.44734 20.7559 1.49446 20.7489 1.5503C20.7338 1.62951 20.7116 1.70719 20.6826 1.78241L18.4435 8.98466C18.3894 9.17139 18.3231 9.29356 18.2498 9.3494C18.1444 9.41681 18.0204 9.44918 17.8956 9.44189H17.098C16.9218 9.44189 16.8013 9.41397 16.7263 9.3494C16.6513 9.28308 16.5867 9.16267 16.55 8.97594L15.1103 2.96737L13.6793 8.96896C13.6339 9.15569 13.578 9.2761 13.5047 9.34067C13.4297 9.40699 13.2988 9.43491 13.133 9.43491H12.3337V9.43317ZM24.2671 9.68447C23.7852 9.68511 23.3048 9.62888 22.8361 9.51693C22.3719 9.40524 22.0106 9.28308 21.7681 9.14347C21.6197 9.0597 21.5185 8.96721 21.4801 8.8817C21.4447 8.79956 21.4263 8.71111 21.426 8.62167V8.14699C21.426 7.95153 21.4993 7.85729 21.6389 7.85729C21.6959 7.85742 21.7525 7.86685 21.8064 7.88521C21.8623 7.90441 21.9461 7.94106 22.0385 7.97945C22.3527 8.11906 22.6982 8.23075 23.0595 8.3058C23.4312 8.37909 23.7924 8.41749 24.1642 8.41749C24.7505 8.41749 25.2043 8.31452 25.5201 8.11034C25.6719 8.01848 25.7966 7.88804 25.8815 7.73231C25.9664 7.57657 26.0085 7.40111 26.0035 7.2238C26.0067 7.10408 25.9861 6.98493 25.943 6.87321C25.8998 6.76149 25.835 6.65941 25.7522 6.57286C25.5865 6.39485 25.2706 6.23604 24.8151 6.08771L23.4678 5.66887C22.7907 5.45421 22.2881 5.1366 21.9827 4.71776C21.6837 4.33076 21.5206 3.85604 21.5185 3.36701C21.5185 2.97609 21.6023 2.63055 21.7681 2.33213C21.9356 2.03546 22.159 1.77368 22.4382 1.56775C22.7174 1.35485 23.0315 1.19604 23.4033 1.08435C23.775 0.972656 24.1642 0.925537 24.5725 0.925537C24.7784 0.925537 24.9914 0.934264 25.1955 0.962186C25.4084 0.990109 25.6039 1.0285 25.7994 1.0669C25.9843 1.11227 26.1624 1.15764 26.3281 1.21523C26.4957 1.27108 26.6248 1.32692 26.7191 1.38277C26.8286 1.43785 26.9241 1.51724 26.9983 1.61487C27.058 1.70574 27.0868 1.81347 27.0803 1.92202V2.36005C27.0803 2.55551 27.007 2.65848 26.8674 2.65848C26.7438 2.64436 26.6241 2.60643 26.5149 2.54679C25.9537 2.29802 25.3451 2.17417 24.7313 2.18379C24.2025 2.18379 23.7837 2.26756 23.4958 2.44557C23.2078 2.62008 23.0595 2.89233 23.0595 3.27452C23.0595 3.53454 23.152 3.75792 23.3387 3.93593C23.5237 4.11219 23.8675 4.28845 24.3596 4.44726L25.6789 4.8661C26.3473 5.08075 26.8307 5.37917 27.1187 5.76136C27.4066 6.14355 27.5445 6.58158 27.5445 7.06674C27.5445 7.46812 27.4625 7.82937 27.3037 8.14699C27.1393 8.46572 26.9084 8.74544 26.6266 8.96721C26.3386 9.19932 25.9948 9.3686 25.5952 9.48901C25.1763 9.6199 24.7401 9.68447 24.2671 9.68447Z" />
    <path fill-rule="evenodd" clip-rule="evenodd" d="M26.0209 14.2113C22.9669 16.4748 18.5272 17.6772 14.7105 17.6772C9.36164 17.6772 4.54152 15.693 0.901128 12.3946C0.613177 12.1329 0.873206 11.7786 1.21526 11.9845C5.15407 14.2759 10.0108 15.665 15.0369 15.665C18.4242 15.665 22.1484 14.9565 25.5759 13.5028C26.0872 13.2707 26.5235 13.8379 26.0209 14.2113Z"/>
    <path fill-rule="evenodd" clip-rule="evenodd" d="M27.2929 12.7577C26.9037 12.2569 24.7118 12.5169 23.7188 12.6373C23.4221 12.6757 23.375 12.414 23.6438 12.2185C25.3889 10.9882 28.2597 11.3424 28.593 11.7525C28.9281 12.1714 28.5005 15.0509 26.8653 16.4296C26.6158 16.6442 26.3749 16.5343 26.4866 16.255C26.8566 15.3301 27.6838 13.2534 27.2929 12.7595V12.7577Z"/>
</svg>
