<svg width="14" height="17" viewBox="0 0 14 17" fill="currentColor" xmlns="http://www.w3.org/2000/svg">
    <path d="M11.9145 9.49466V6.93764C11.9133 5.79834 11.5037 4.6962 10.7582 3.82642C10.0127 2.95663 8.97933 2.37532 7.8412 2.18544V1.30898C7.8412 1.09572 7.75537 0.891194 7.60259 0.740397C7.44981 0.5896 7.2426 0.504883 7.02654 0.504883C6.81048 0.504883 6.60327 0.5896 6.45049 0.740397C6.29771 0.891194 6.21188 1.09572 6.21188 1.30898V2.18544C5.07376 2.37532 4.04043 2.95663 3.29491 3.82642C2.54938 4.6962 2.13976 5.79834 2.13859 6.93764V9.49466C1.6632 9.66056 1.25143 9.96753 0.959733 10.3735C0.668037 10.7794 0.510694 11.2645 0.509277 11.7622V13.3704C0.509277 13.5837 0.595107 13.7882 0.747885 13.939C0.900663 14.0898 1.10787 14.1745 1.32394 14.1745H3.88196C4.06956 14.8559 4.47911 15.4574 5.04741 15.8862C5.61571 16.315 6.31119 16.5474 7.02654 16.5474C7.7419 16.5474 8.43737 16.315 9.00567 15.8862C9.57398 15.4574 9.98352 14.8559 10.1711 14.1745H12.7291C12.9452 14.1745 13.1524 14.0898 13.3052 13.939C13.458 13.7882 13.5438 13.5837 13.5438 13.3704V11.7622C13.5424 11.2645 13.385 10.7794 13.0934 10.3735C12.8017 9.96753 12.3899 9.66056 11.9145 9.49466ZM3.76791 6.93764C3.76791 6.08461 4.11123 5.26651 4.72234 4.66332C5.33345 4.06013 6.1623 3.72126 7.02654 3.72126C7.89078 3.72126 8.71963 4.06013 9.33074 4.66332C9.94185 5.26651 10.2852 6.08461 10.2852 6.93764V9.34993H3.76791V6.93764ZM7.02654 14.9786C6.7422 14.9769 6.46327 14.9018 6.21745 14.7607C5.97163 14.6197 5.7675 14.4176 5.62533 14.1745H8.42775C8.28559 14.4176 8.08145 14.6197 7.83563 14.7607C7.58982 14.9018 7.31088 14.9769 7.02654 14.9786ZM11.9145 12.5663H2.13859V11.7622C2.13859 11.549 2.22442 11.3444 2.3772 11.1936C2.52998 11.0428 2.73719 10.9581 2.95325 10.9581H11.0998C11.3159 10.9581 11.5231 11.0428 11.6759 11.1936C11.8287 11.3444 11.9145 11.549 11.9145 11.7622V12.5663Z" />
</svg>
