<svg viewBox="0 0 32 32" fill="currentColor">
<path
    d="M27.4453 23.3141H20.7849C19.5515 23.3141 18.4415 23.0674 17.3314 22.4507C16.2214 21.9573 15.358 21.094 14.7413 20.1072L14.1246 19.2439C13.6312 18.6272 13.0145 18.0105 12.3978 17.6405C11.7811 17.2704 10.7944 17.1471 10.0544 17.1471H5.24414C4.5041 17.1471 4.01074 16.6537 4.01074 15.9137C4.01074 15.1737 4.5041 14.6803 5.24414 14.6803H10.0544C11.2878 14.6803 12.3978 14.927 13.5079 15.5437C14.618 16.037 15.4813 16.9004 16.098 17.8871L16.7147 18.7505C17.2081 19.3672 17.8248 19.9839 18.4415 20.3539C19.0582 20.7239 20.0449 20.8473 20.7849 20.8473H27.4453C28.1853 20.8473 28.6787 21.3406 28.6787 22.0807C28.6787 22.8207 28.1853 23.3141 27.4453 23.3141Z"
  />
<path
    d="M10.0544 17.1467H5.24414C4.5041 17.1467 4.01074 16.6534 4.01074 15.9133C4.01074 15.1733 4.5041 14.6799 5.24414 14.6799H10.0544C10.7944 14.6799 11.6578 14.4332 12.2745 14.0632C13.0145 13.6932 13.6312 13.1998 14.0013 12.4598L14.618 11.5964C15.358 10.6097 16.2214 9.86968 17.2081 9.25298C18.4415 8.75962 19.5515 8.51294 20.7849 8.51294H27.4453C28.1853 8.51294 28.6787 9.0063 28.6787 9.74634C28.6787 10.4864 28.1853 10.9797 27.4453 10.9797H20.7849C20.0449 10.9797 19.1815 11.2264 18.5648 11.5964C17.8248 11.9665 17.2081 12.4598 16.8381 13.1998L16.2214 14.0632C15.4813 15.0499 14.618 15.79 13.6312 16.4067C12.3978 16.9 11.2878 17.1467 10.0544 17.1467Z"
  />
<path
    d="M23.7451 14.68C23.3751 14.68 23.1284 14.5567 22.8817 14.31C22.3884 13.8167 22.3884 13.0766 22.8817 12.5833L25.7186 9.74645L22.8817 6.90964C22.3884 6.41628 22.3884 5.67624 22.8817 5.18289C23.3751 4.68953 24.1151 4.68953 24.6085 5.18289L28.3087 8.88308C28.802 9.37644 28.802 10.1165 28.3087 10.6098L24.6085 14.31C24.3618 14.5567 24.1151 14.68 23.7451 14.68Z"
  />
<path
    d="M23.7451 27.014C23.3751 27.014 23.1284 26.8907 22.8817 26.644C22.3884 26.1507 22.3884 25.4106 22.8817 24.9173L25.7186 22.0804L22.8817 19.2436C22.3884 18.7503 22.3884 18.0102 22.8817 17.5169C23.3751 17.0235 24.1151 17.0235 24.6085 17.5169L28.3087 21.2171C28.802 21.7104 28.802 22.4505 28.3087 22.9438L24.6085 26.644C24.3618 26.8907 24.1151 27.014 23.7451 27.014Z"
  />
</svg>
