<svg width="16" height="16" viewBox="0 0 16 16" fill="currentColor" xmlns="http://www.w3.org/2000/svg">
<path d="M7.83325 9.33203C7.98159 9.33203 8.12659 9.28804 8.24993 9.20563C8.37327 9.12322 8.4694 9.00609 8.52616 8.86904C8.58293 8.732 8.59778 8.5812 8.56884 8.43571C8.5399 8.29023 8.46847 8.15659 8.36358 8.0517C8.25869 7.94681 8.12506 7.87538 7.97957 7.84644C7.83408 7.8175 7.68328 7.83236 7.54624 7.88912C7.40919 7.94589 7.29206 8.04202 7.20965 8.16535C7.12724 8.28869 7.08325 8.4337 7.08325 8.58203C7.08325 8.78094 7.16227 8.97171 7.30292 9.11236C7.44357 9.25301 7.63434 9.33203 7.83325 9.33203ZM11.5833 9.33203C11.7316 9.33203 11.8766 9.28804 11.9999 9.20563C12.1233 9.12322 12.2194 9.00609 12.2762 8.86904C12.3329 8.732 12.3478 8.5812 12.3188 8.43571C12.2899 8.29023 12.2185 8.15659 12.1136 8.0517C12.0087 7.94681 11.8751 7.87538 11.7296 7.84644C11.5841 7.8175 11.4333 7.83236 11.2962 7.88912C11.1592 7.94589 11.0421 8.04202 10.9596 8.16535C10.8772 8.28869 10.8333 8.4337 10.8333 8.58203C10.8333 8.78094 10.9123 8.97171 11.0529 9.11236C11.1936 9.25301 11.3843 9.33203 11.5833 9.33203ZM7.83325 12.332C7.98159 12.332 8.12659 12.288 8.24993 12.2056C8.37327 12.1232 8.4694 12.0061 8.52616 11.869C8.58293 11.732 8.59778 11.5812 8.56884 11.4357C8.5399 11.2902 8.46847 11.1566 8.36358 11.0517C8.25869 10.9468 8.12506 10.8754 7.97957 10.8464C7.83408 10.8175 7.68328 10.8324 7.54624 10.8891C7.40919 10.9459 7.29206 11.042 7.20965 11.1654C7.12724 11.2887 7.08325 11.4337 7.08325 11.582C7.08325 11.7809 7.16227 11.9717 7.30292 12.1124C7.44357 12.253 7.63434 12.332 7.83325 12.332ZM11.5833 12.332C11.7316 12.332 11.8766 12.288 11.9999 12.2056C12.1233 12.1232 12.2194 12.0061 12.2762 11.869C12.3329 11.732 12.3478 11.5812 12.3188 11.4357C12.2899 11.2902 12.2185 11.1566 12.1136 11.0517C12.0087 10.9468 11.8751 10.8754 11.7296 10.8464C11.5841 10.8175 11.4333 10.8324 11.2962 10.8891C11.1592 10.9459 11.0421 11.042 10.9596 11.1654C10.8772 11.2887 10.8333 11.4337 10.8333 11.582C10.8333 11.7809 10.9123 11.9717 11.0529 12.1124C11.1936 12.253 11.3843 12.332 11.5833 12.332ZM4.08325 9.33203C4.23159 9.33203 4.37659 9.28804 4.49993 9.20563C4.62327 9.12322 4.7194 9.00609 4.77616 8.86904C4.83293 8.732 4.84778 8.5812 4.81884 8.43571C4.7899 8.29023 4.71847 8.15659 4.61358 8.0517C4.50869 7.94681 4.37506 7.87538 4.22957 7.84644C4.08408 7.8175 3.93328 7.83236 3.79624 7.88912C3.65919 7.94589 3.54206 8.04202 3.45965 8.16535C3.37724 8.28869 3.33325 8.4337 3.33325 8.58203C3.33325 8.78094 3.41227 8.97171 3.55292 9.11236C3.69357 9.25301 3.88434 9.33203 4.08325 9.33203ZM13.0833 1.83203H12.3333V1.08203C12.3333 0.883119 12.2542 0.692353 12.1136 0.551701C11.9729 0.411049 11.7822 0.332031 11.5833 0.332031C11.3843 0.332031 11.1936 0.411049 11.0529 0.551701C10.9123 0.692353 10.8333 0.883119 10.8333 1.08203V1.83203H4.83325V1.08203C4.83325 0.883119 4.75423 0.692353 4.61358 0.551701C4.47293 0.411049 4.28216 0.332031 4.08325 0.332031C3.88434 0.332031 3.69357 0.411049 3.55292 0.551701C3.41227 0.692353 3.33325 0.883119 3.33325 1.08203V1.83203H2.58325C1.98651 1.83203 1.41422 2.06908 0.992262 2.49104C0.570305 2.913 0.333252 3.48529 0.333252 4.08203V13.082C0.333252 13.6788 0.570305 14.2511 0.992262 14.673C1.41422 15.095 1.98651 15.332 2.58325 15.332H13.0833C13.68 15.332 14.2523 15.095 14.6742 14.673C15.0962 14.2511 15.3333 13.6788 15.3333 13.082V4.08203C15.3333 3.48529 15.0962 2.913 14.6742 2.49104C14.2523 2.06908 13.68 1.83203 13.0833 1.83203V1.83203ZM13.8333 13.082C13.8333 13.2809 13.7542 13.4717 13.6136 13.6124C13.4729 13.753 13.2822 13.832 13.0833 13.832H2.58325C2.38434 13.832 2.19357 13.753 2.05292 13.6124C1.91227 13.4717 1.83325 13.2809 1.83325 13.082V6.33203H13.8333V13.082ZM13.8333 4.83203H1.83325V4.08203C1.83325 3.88312 1.91227 3.69235 2.05292 3.5517C2.19357 3.41105 2.38434 3.33203 2.58325 3.33203H13.0833C13.2822 3.33203 13.4729 3.41105 13.6136 3.5517C13.7542 3.69235 13.8333 3.88312 13.8333 4.08203V4.83203ZM4.08325 12.332C4.23159 12.332 4.37659 12.288 4.49993 12.2056C4.62327 12.1232 4.7194 12.0061 4.77616 11.869C4.83293 11.732 4.84778 11.5812 4.81884 11.4357C4.7899 11.2902 4.71847 11.1566 4.61358 11.0517C4.50869 10.9468 4.37506 10.8754 4.22957 10.8464C4.08408 10.8175 3.93328 10.8324 3.79624 10.8891C3.65919 10.9459 3.54206 11.042 3.45965 11.1654C3.37724 11.2887 3.33325 11.4337 3.33325 11.582C3.33325 11.7809 3.41227 11.9717 3.55292 12.1124C3.69357 12.253 3.88434 12.332 4.08325 12.332Z"/>
</svg>
