<svg width="26" height="26" viewBox="0 0 26 26" fill="currentColor" xmlns="http://www.w3.org/2000/svg">
<path d="M16.536 8.827L10.959 14.417L8.814 12.272C8.69746 12.1359 8.55405 12.0254 8.39276 11.9474C8.23148 11.8693 8.05581 11.8255 7.87677 11.8186C7.69774 11.8116 7.51921 11.8418 7.35238 11.9072C7.18556 11.9725 7.03405 12.0717 6.90736 12.1984C6.78067 12.325 6.68153 12.4766 6.61618 12.6434C6.55082 12.8102 6.52065 12.9887 6.52757 13.1678C6.53448 13.3468 6.57833 13.5225 6.65636 13.6838C6.73439 13.845 6.84492 13.9885 6.981 14.105L10.036 17.173C10.1575 17.2935 10.3015 17.3888 10.4599 17.4535C10.6183 17.5182 10.7879 17.551 10.959 17.55C11.3 17.5486 11.6269 17.4132 11.869 17.173L18.369 10.673C18.4908 10.5521 18.5876 10.4084 18.6536 10.2499C18.7196 10.0915 18.7535 9.92161 18.7535 9.75C18.7535 9.57838 18.7196 9.40846 18.6536 9.25005C18.5876 9.09163 18.4908 8.94785 18.369 8.827C18.1254 8.58487 17.7959 8.44897 17.4525 8.44897C17.1091 8.44897 16.7796 8.58487 16.536 8.827ZM13 0C10.4288 0 7.91543 0.762437 5.77759 2.19089C3.63975 3.61935 1.97351 5.64967 0.989572 8.02511C0.00563269 10.4006 -0.251811 13.0144 0.249797 15.5362C0.751405 18.0579 1.98953 20.3743 3.80762 22.1924C5.6257 24.0105 7.94208 25.2486 10.4638 25.7502C12.9856 26.2518 15.5994 25.9944 17.9749 25.0104C20.3503 24.0265 22.3806 22.3602 23.8091 20.2224C25.2376 18.0846 26 15.5712 26 13C26 11.2928 25.6637 9.60234 25.0104 8.02511C24.3571 6.44788 23.3995 5.01477 22.1924 3.80761C20.9852 2.60045 19.5521 1.64288 17.9749 0.989566C16.3977 0.336255 14.7072 0 13 0ZM13 23.4C10.9431 23.4 8.93234 22.79 7.22207 21.6473C5.5118 20.5045 4.17881 18.8803 3.39166 16.9799C2.60451 15.0796 2.39855 12.9885 2.79984 10.9711C3.20112 8.95366 4.19163 7.10055 5.64609 5.64609C7.10056 4.19162 8.95366 3.20112 10.9711 2.79983C12.9885 2.39855 15.0796 2.6045 16.9799 3.39165C18.8803 4.1788 20.5045 5.5118 21.6473 7.22207C22.7901 8.93234 23.4 10.9431 23.4 13C23.4 15.7582 22.3043 18.4035 20.3539 20.3539C18.4035 22.3043 15.7583 23.4 13 23.4Z" fill="currentColor"/>
</svg>
