<svg  viewBox="0 0 11 7" fill="currentColor" xmlns="http://www.w3.org/2000/svg">
    <path d="M10.4997 0.669943C10.3123 0.483692 10.0589 0.37915 9.7947 0.37915C9.53052 0.37915 9.27707 0.483692 9.0897 0.669943L5.4997 4.20994L1.9597 0.669943C1.77234 0.483692 1.51889 0.37915 1.2547 0.37915C0.990519 0.37915 0.737067 0.483692 0.549705 0.669943C0.455976 0.762906 0.381582 0.873507 0.330813 0.995366C0.280044 1.11723 0.253906 1.24793 0.253906 1.37994C0.253906 1.51195 0.280044 1.64266 0.330813 1.76452C0.381582 1.88638 0.455976 1.99698 0.549705 2.08994L4.7897 6.32994C4.88267 6.42367 4.99327 6.49806 5.11513 6.54883C5.23699 6.5996 5.36769 6.62574 5.4997 6.62574C5.63172 6.62574 5.76242 6.5996 5.88428 6.54883C6.00614 6.49806 6.11674 6.42367 6.2097 6.32994L10.4997 2.08994C10.5934 1.99698 10.6678 1.88638 10.7186 1.76452C10.7694 1.64266 10.7955 1.51195 10.7955 1.37994C10.7955 1.24793 10.7694 1.11723 10.7186 0.995366C10.6678 0.873507 10.5934 0.762906 10.4997 0.669943Z" fill="currentColor"/>
</svg>
