<svg viewBox="0 0 12 8" fill="currentColor" xmlns="http://www.w3.org/2000/svg">
<path d="M10.9999 5.4108L6.70995 1.1708C6.61699 1.07707 6.50638 1.00268 6.38453 0.951907C6.26267 0.901138 6.13196 0.875 5.99995 0.875C5.86794 0.875 5.73723 0.901138 5.61537 0.951907C5.49351 1.00268 5.38291 1.07707 5.28995 1.1708L1.04995 5.4108C0.95622 5.50376 0.881826 5.61436 0.831057 5.73622C0.780288 5.85808 0.75415 5.98879 0.75415 6.1208C0.75415 6.25281 0.780288 6.38352 0.831057 6.50537C0.881826 6.62723 0.95622 6.73783 1.04995 6.8308C1.23731 7.01705 1.49076 7.12159 1.75495 7.12159C2.01913 7.12159 2.27259 7.01705 2.45995 6.8308L5.99995 3.2908L9.53995 6.8308C9.72621 7.01554 9.97761 7.11969 10.2399 7.1208C10.3716 7.12156 10.502 7.09633 10.6239 7.04657C10.7457 6.99681 10.8565 6.92348 10.9499 6.8308C11.047 6.74118 11.1254 6.63321 11.1805 6.51314C11.2356 6.39306 11.2664 6.26326 11.271 6.13122C11.2757 5.99919 11.2541 5.86754 11.2076 5.74389C11.161 5.62023 11.0905 5.50702 10.9999 5.4108Z" />
</svg>
