<svg width="17" height="18" viewBox="0 0 17 18" fill="currentColor" xmlns="http://www.w3.org/2000/svg">
<path d="M14.665 3.65577L9.62365 0.748331C8.77233 0.257355 7.71451 0.257389 6.86315 0.748331L1.82182 3.65577C0.968829 4.14765 0.438965 5.06499 0.438965 6.04975V11.8601C0.438965 12.8449 0.968829 13.7622 1.82179 14.2541L6.86315 17.1615C7.71464 17.6526 8.77243 17.6524 9.62365 17.1615L14.665 14.2541C15.518 13.7622 16.0478 12.8449 16.0478 11.8601V6.04975C16.0478 5.06502 15.518 4.14768 14.665 3.65577ZM14.708 11.8601C14.708 12.3674 14.4351 12.8399 13.9957 13.0932L8.95434 16.0007C8.51579 16.2536 7.97098 16.2536 7.53243 16.0007L2.49106 13.0932C2.0517 12.8398 1.77878 12.3674 1.77878 11.8601V6.04975C1.77878 5.54253 2.0517 5.07001 2.4911 4.81665L7.53243 1.90922C7.97102 1.65626 8.51599 1.65636 8.95438 1.90922L13.9957 4.81662C14.4351 5.07001 14.708 5.5425 14.708 6.04975V11.8601Z" />
<path d="M7.60685 8.44341L5.11877 6.33779C4.83637 6.09876 4.41363 6.13397 4.17464 6.41647C3.93565 6.69897 3.97088 7.12172 4.25332 7.36074L6.13703 8.95492L4.25332 10.5491C3.97088 10.7881 3.93568 11.2108 4.17464 11.4933C4.41419 11.7764 4.83704 11.8104 5.11877 11.572L7.60685 9.46636C7.92338 9.1985 7.92247 8.71054 7.60685 8.44341Z"/>
<path d="M11.801 10.3905H8.78661C8.41662 10.3905 8.1167 10.6905 8.1167 11.0605C8.1167 11.4306 8.41662 11.7306 8.78661 11.7306H11.801C12.171 11.7306 12.4709 11.4306 12.4709 11.0605C12.4709 10.6905 12.171 10.3905 11.801 10.3905Z"/>
</svg>
