<svg viewBox="0 0 14 14" fill="currentColor" xmlns="http://www.w3.org/2000/svg">
<path d="M13.214 5.36683L11.954 4.94683L12.5473 3.76016C12.6075 3.63596 12.6276 3.49614 12.6049 3.36001C12.5822 3.22389 12.5178 3.09815 12.4207 3.00016L11.0007 1.58016C10.9021 1.48156 10.7752 1.4163 10.6377 1.39358C10.5002 1.37086 10.359 1.39182 10.234 1.4535L9.04732 2.04683L8.62732 0.786832C8.58296 0.655493 8.49877 0.541249 8.38645 0.459997C8.27413 0.378745 8.13928 0.334528 8.00065 0.333498H6.00065C5.86089 0.333138 5.72455 0.376711 5.6109 0.45806C5.49725 0.539408 5.41204 0.654418 5.36732 0.786832L4.94732 2.04683L3.76065 1.4535C3.63644 1.39335 3.49663 1.37323 3.3605 1.39592C3.22437 1.41861 3.09864 1.48299 3.00065 1.58016L1.58065 3.00016C1.48204 3.09867 1.41679 3.22561 1.39407 3.36314C1.37135 3.50066 1.3923 3.64184 1.45399 3.76683L2.04732 4.9535L0.78732 5.3735C0.655981 5.41785 0.541737 5.50205 0.460485 5.61437C0.379234 5.72669 0.335016 5.86154 0.333987 6.00016V8.00016C0.333626 8.13993 0.377199 8.27627 0.458548 8.38992C0.539897 8.50357 0.654906 8.58877 0.78732 8.6335L2.04732 9.0535L1.45399 10.2402C1.39384 10.3644 1.37372 10.5042 1.39641 10.6403C1.4191 10.7764 1.48347 10.9022 1.58065 11.0002L3.00065 12.4202C3.09916 12.5188 3.2261 12.584 3.36362 12.6067C3.50114 12.6295 3.64233 12.6085 3.76732 12.5468L4.95399 11.9535L5.37399 13.2135C5.41871 13.3459 5.50392 13.4609 5.61757 13.5423C5.73122 13.6236 5.86756 13.6672 6.00732 13.6668H8.00732C8.14708 13.6672 8.28342 13.6236 8.39707 13.5423C8.51072 13.4609 8.59593 13.3459 8.64065 13.2135L9.06065 11.9535L10.2473 12.5468C10.3707 12.6055 10.5092 12.6248 10.6439 12.6021C10.7787 12.5794 10.9032 12.5159 11.0007 12.4202L12.4207 11.0002C12.5193 10.9017 12.5845 10.7747 12.6072 10.6372C12.63 10.4997 12.609 10.3585 12.5473 10.2335L11.954 9.04683L13.214 8.62683C13.3453 8.58247 13.4596 8.49828 13.5408 8.38596C13.6221 8.27364 13.6663 8.13879 13.6673 8.00016V6.00016C13.6677 5.8604 13.6241 5.72406 13.5428 5.61041C13.4614 5.49676 13.3464 5.41156 13.214 5.36683ZM12.334 7.52016L11.534 7.78683C11.35 7.8465 11.1812 7.94548 11.0394 8.0769C10.8975 8.20832 10.7859 8.36903 10.7123 8.54788C10.6387 8.72674 10.6049 8.91946 10.6133 9.11268C10.6216 9.3059 10.6719 9.49499 10.7607 9.66683L11.1407 10.4268L10.4073 11.1602L9.66732 10.7602C9.49636 10.675 9.30909 10.6275 9.11819 10.621C8.9273 10.6145 8.73723 10.6491 8.56086 10.7224C8.3845 10.7958 8.22594 10.9061 8.09593 11.0461C7.96592 11.186 7.8675 11.3522 7.80732 11.5335L7.54065 12.3335H6.48065L6.21399 11.5335C6.15431 11.3495 6.05534 11.1808 5.92392 11.0389C5.7925 10.897 5.63179 10.7854 5.45293 10.7118C5.27408 10.6382 5.08135 10.6045 4.88814 10.6128C4.69492 10.6212 4.50583 10.6714 4.33399 10.7602L3.57399 11.1402L2.84065 10.4068L3.24065 9.66683C3.32938 9.49499 3.37967 9.3059 3.38802 9.11268C3.39637 8.91946 3.36258 8.72674 3.28901 8.54788C3.21544 8.36903 3.10384 8.20832 2.96195 8.0769C2.82006 7.94548 2.65128 7.8465 2.46732 7.78683L1.66732 7.52016V6.48016L2.46732 6.2135C2.65128 6.15383 2.82006 6.05485 2.96195 5.92343C3.10384 5.79201 3.21544 5.6313 3.28901 5.45244C3.36258 5.27359 3.39637 5.08087 3.38802 4.88765C3.37967 4.69443 3.32938 4.50534 3.24065 4.3335L2.86065 3.5935L3.59399 2.86016L4.33399 3.24016C4.50583 3.32889 4.69492 3.37918 4.88814 3.38753C5.08135 3.39588 5.27408 3.3621 5.45293 3.28852C5.63179 3.21495 5.7925 3.10335 5.92392 2.96146C6.05534 2.81957 6.15431 2.65079 6.21399 2.46683L6.48065 1.66683H7.52065L7.78732 2.46683C7.84699 2.65079 7.94597 2.81957 8.07739 2.96146C8.2088 3.10335 8.36951 3.21495 8.54837 3.28852C8.72723 3.3621 8.91995 3.39588 9.11317 3.38753C9.30639 3.37918 9.49548 3.32889 9.66732 3.24016L10.4273 2.86016L11.1607 3.5935L10.7607 4.3335C10.6755 4.50446 10.628 4.69173 10.6215 4.88262C10.615 5.07352 10.6496 5.26358 10.7229 5.43995C10.7962 5.61632 10.9066 5.77488 11.0465 5.90488C11.1865 6.03489 11.3527 6.13332 11.534 6.1935L12.334 6.46016V7.52016ZM7.00065 4.3335C6.47324 4.3335 5.95766 4.4899 5.51913 4.78291C5.0806 5.07593 4.73881 5.49241 4.53697 5.97967C4.33514 6.46694 4.28233 7.00312 4.38523 7.52041C4.48812 8.03769 4.74209 8.51284 5.11503 8.88578C5.48797 9.25872 5.96313 9.5127 6.48041 9.61559C6.99769 9.71849 7.53387 9.66568 8.02114 9.46384C8.50841 9.26201 8.92489 8.92022 9.2179 8.48168C9.51092 8.04315 9.66732 7.52758 9.66732 7.00016C9.66732 6.29292 9.38637 5.61464 8.88627 5.11455C8.38617 4.61445 7.7079 4.3335 7.00065 4.3335V4.3335ZM7.00065 8.3335C6.73694 8.3335 6.47916 8.2553 6.25989 8.10879C6.04063 7.96228 5.86973 7.75404 5.76881 7.51041C5.6679 7.26677 5.64149 6.99869 5.69294 6.74004C5.74439 6.4814 5.87137 6.24383 6.05784 6.05736C6.24431 5.87089 6.48189 5.7439 6.74053 5.69245C6.99917 5.641 7.26726 5.66741 7.5109 5.76832C7.75453 5.86924 7.96277 6.04014 8.10928 6.2594C8.25579 6.47867 8.33399 6.73646 8.33399 7.00016C8.33399 7.35379 8.19351 7.69292 7.94346 7.94297C7.69341 8.19302 7.35427 8.3335 7.00065 8.3335Z" />
</svg>
