<svg viewBox="0 0 36 30" fill="currentColor" xmlns="http://www.w3.org/2000/svg">
    <path
        d="M35.6236 10.2338L26.6234 1.23361C26.1212 0.731574 25.3072 0.731725 24.8051 1.23391C24.5641 1.47499 24.4287 1.8018 24.4287 2.14269V5.99989H15.4285C14.7184 5.99989 14.1428 6.57553 14.1428 7.28565C14.1428 7.99576 14.7184 8.5714 15.4285 8.5714H25.7144C26.4245 8.5714 27.0002 7.99576 27.0002 7.28565V5.24638L32.8966 11.1428L27.0002 17.0392V15C27.0002 14.2899 26.4245 13.7142 25.7144 13.7142H11.5713V9.85701C11.5712 9.1469 10.9954 8.57141 10.2853 8.57156C9.94451 8.57163 9.61763 8.70701 9.37655 8.94801L0.376472 17.9482C-0.125491 18.4503 -0.125491 19.2641 0.376472 19.7662L9.37663 28.7663C9.6177 29.0075 9.94466 29.143 10.2856 29.1431C10.4546 29.1436 10.6221 29.1104 10.778 29.0454C11.2584 28.8462 11.5715 28.3774 11.5713 27.8573V24.0001H20.5715C21.2816 24.0001 21.8572 23.4245 21.8572 22.7144C21.8572 22.0043 21.2816 21.4286 20.5715 21.4286H10.2856C9.57551 21.4286 8.99987 22.0043 8.99987 22.7144V24.7536L3.10348 18.8572L8.99987 12.9608V15C8.99987 15.7101 9.57551 16.2857 10.2856 16.2857H24.4287V20.1429C24.4288 20.853 25.0046 21.4285 25.7146 21.4284C26.0555 21.4283 26.3824 21.2929 26.6234 21.0519L35.6236 12.0518C36.1255 11.5497 36.1255 10.7358 35.6236 10.2338Z"
    />
</svg>