<svg viewBox="0 0 12 14" fill="currentColor" xmlns="http://www.w3.org/2000/svg">
<path
    d="M8.66667 12.3334H3.33333C2.8029 12.3334 2.29419 12.1227 1.91912 11.7476C1.54405 11.3725 1.33333 10.8638 1.33333 10.3334V3.66671C1.33333 3.4899 1.2631 3.32033 1.13807 3.1953C1.01305 3.07028 0.843478 3.00004 0.666667 3.00004C0.489856 3.00004 0.320286 3.07028 0.195262 3.1953C0.0702379 3.32033 0 3.4899 0 3.66671V10.3334C0 11.2174 0.351189 12.0653 0.976311 12.6904C1.60143 13.3155 2.44928 13.6667 3.33333 13.6667H8.66667C8.84348 13.6667 9.01305 13.5965 9.13807 13.4714C9.2631 13.3464 9.33333 13.1769 9.33333 13C9.33333 12.8232 9.2631 12.6537 9.13807 12.5286C9.01305 12.4036 8.84348 12.3334 8.66667 12.3334ZM12 4.96004C11.9931 4.8988 11.9796 4.83846 11.96 4.78004V4.72004C11.9279 4.65149 11.8852 4.58848 11.8333 4.53337V4.53337L7.83333 0.533374C7.77822 0.481518 7.71521 0.438761 7.64667 0.406707H7.58667L7.37333 0.333374H4.66667C4.13623 0.333374 3.62753 0.544088 3.25245 0.919161C2.87738 1.29423 2.66667 1.80294 2.66667 2.33337V9.00004C2.66667 9.53047 2.87738 10.0392 3.25245 10.4143C3.62753 10.7893 4.13623 11 4.66667 11H10C10.5304 11 11.0391 10.7893 11.4142 10.4143C11.7893 10.0392 12 9.53047 12 9.00004V5.00004C12 5.00004 12 5.00004 12 4.96004ZM8 2.60671L9.72667 4.33337H8.66667C8.48986 4.33337 8.32029 4.26314 8.19526 4.13811C8.07024 4.01309 8 3.84352 8 3.66671V2.60671ZM10.6667 9.00004C10.6667 9.17685 10.5964 9.34642 10.4714 9.47145C10.3464 9.59647 10.1768 9.66671 10 9.66671H4.66667C4.48986 9.66671 4.32029 9.59647 4.19526 9.47145C4.07024 9.34642 4 9.17685 4 9.00004V2.33337C4 2.15656 4.07024 1.98699 4.19526 1.86197C4.32029 1.73695 4.48986 1.66671 4.66667 1.66671H6.66667V3.66671C6.66667 4.19714 6.87738 4.70585 7.25245 5.08092C7.62753 5.45599 8.13623 5.66671 8.66667 5.66671H10.6667V9.00004Z"
  />
</svg>
