<svg viewBox="0 0 24 24" fill="currentColor">
<path
    d="M12.8878 12.4416L18.9424 6.39671C19.1233 6.21575 19.225 5.9703 19.225 5.71438C19.225 5.45845 19.1233 5.21301 18.9424 5.03204C18.7614 4.85107 18.516 4.7494 18.26 4.7494C18.0041 4.7494 17.7587 4.85107 17.5777 5.03204L11.5328 11.0866L5.48782 5.03204C5.30685 4.85107 5.0614 4.74941 4.80548 4.74941C4.54955 4.74941 4.30411 4.85107 4.12314 5.03204C3.94217 5.21301 3.84051 5.45845 3.84051 5.71438C3.84051 5.9703 3.94217 6.21575 4.12314 6.39671L10.1777 12.4416L4.12314 18.4866C4.03306 18.5759 3.96157 18.6822 3.91278 18.7993C3.86399 18.9164 3.83887 19.0421 3.83887 19.1689C3.83887 19.2958 3.86399 19.4214 3.91278 19.5385C3.96157 19.6556 4.03306 19.7619 4.12314 19.8513C4.21248 19.9413 4.31877 20.0128 4.43589 20.0616C4.553 20.1104 4.67861 20.1355 4.80548 20.1355C4.93235 20.1355 5.05796 20.1104 5.17507 20.0616C5.29218 20.0128 5.39848 19.9413 5.48782 19.8513L11.5328 13.7967L17.5777 19.8513C17.667 19.9413 17.7733 20.0128 17.8904 20.0616C18.0075 20.1104 18.1332 20.1355 18.26 20.1355C18.3869 20.1355 18.5125 20.1104 18.6296 20.0616C18.7467 20.0128 18.853 19.9413 18.9424 19.8513C19.0324 19.7619 19.1039 19.6556 19.1527 19.5385C19.2015 19.4214 19.2266 19.2958 19.2266 19.1689C19.2266 19.0421 19.2015 18.9164 19.1527 18.7993C19.1039 18.6822 19.0324 18.5759 18.9424 18.4866L12.8878 12.4416Z"
  />
</svg>
