<svg width="40" height="40" viewBox="0 0 40 40" fill="currentColor"
    xmlns="http://www.w3.org/2000/svg">
    <path fill-rule="evenodd" clip-rule="evenodd"
        d="M10.0891 7.58447C9.78612 7.58447 9.49557 7.70482 9.28135 7.91904C9.06713 8.13327 8.94678 8.42382 8.94678 8.72677C8.94678 9.02973 9.06713 9.32028 9.28135 9.5345C9.49557 9.74872 9.78612 9.86907 10.0891 9.86907H14.6583C14.9612 9.86907 15.2518 9.74872 15.466 9.5345C15.6802 9.32028 15.8006 9.02973 15.8006 8.72677C15.8006 8.42382 15.6802 8.13327 15.466 7.91904C15.2518 7.70482 14.9612 7.58447 14.6583 7.58447H10.0891Z"
    />
    <path fill-rule="evenodd" clip-rule="evenodd"
        d="M7.80385 3C5.92476 3 4.37695 4.5478 4.37695 6.4269V10.9961C4.37695 11.8713 4.71635 12.6721 5.26491 13.2807C4.71635 13.8892 4.37695 14.6901 4.37695 15.5653V20.1345C4.37695 21.0097 4.71635 21.8105 5.26491 22.4191C4.71635 23.0276 4.37695 23.8285 4.37695 24.7037V29.2729C4.37695 31.152 5.92476 32.6998 7.80385 32.6998H22.7653C24.21 34.1205 26.1882 35 28.3652 35C32.7678 35 36.3613 31.4065 36.3613 27.0039C36.3613 23.8264 34.489 21.0698 31.7921 19.782V15.5653C31.7921 14.6901 31.4527 13.8892 30.9042 13.2807C31.4527 12.6721 31.7921 11.8713 31.7921 10.9961V6.4269C31.7921 4.5478 30.2443 3 28.3652 3H7.80385ZM7.80385 5.2846H28.3652C29.0096 5.2846 29.5075 5.78249 29.5075 6.4269V10.9961C29.5075 11.6405 29.0096 12.1384 28.3652 12.1384H7.80385C7.15945 12.1384 6.66155 11.6405 6.66155 10.9961V6.4269C6.66155 5.78249 7.15945 5.2846 7.80385 5.2846ZM7.80385 14.423H28.3652C29.0096 14.423 29.5075 14.9209 29.5075 15.5653V19.0904C29.1339 19.0364 28.7534 19.0078 28.3652 19.0078C26.2045 19.0078 24.2405 19.8748 22.7988 21.2768H7.80385C7.15945 21.2768 6.66155 20.7789 6.66155 20.1345V15.5653C6.66155 14.9209 7.15945 14.423 7.80385 14.423ZM28.3652 21.2924C31.5331 21.2924 34.0767 23.836 34.0767 27.0039C34.0767 30.1718 31.5331 32.7154 28.3652 32.7154C25.1973 32.7154 22.6537 30.1718 22.6537 27.0039C22.6537 23.836 25.1973 21.2924 28.3652 21.2924ZM7.80385 23.5614H21.15C20.6489 24.6051 20.3691 25.7728 20.3691 27.0039C20.3691 28.223 20.6446 29.3793 21.1366 30.4152H7.80385C7.15945 30.4152 6.66155 29.9173 6.66155 29.2729V24.7037C6.66155 24.0593 7.15945 23.5614 7.80385 23.5614Z"
    />
    <path fill-rule="evenodd" clip-rule="evenodd"
        d="M27.2221 23.5767C26.9192 23.5767 26.6286 23.6971 26.4144 23.9113L24.1298 26.1959C23.6839 26.642 23.6839 27.3651 24.1298 27.8112L26.4144 30.0958C26.8605 30.5418 27.5837 30.5418 28.0297 30.0958C28.4757 29.6497 28.4757 28.9266 28.0297 28.4805L27.6951 28.1459H31.7913C32.4222 28.1459 32.9336 27.6344 32.9336 27.0036C32.9336 26.3727 32.4222 25.8613 31.7913 25.8613H27.6951L28.0297 25.5266C28.4757 25.0805 28.4757 24.3574 28.0297 23.9113C27.8156 23.6971 27.525 23.5767 27.2221 23.5767Z"
    />
    <path fill-rule="evenodd" clip-rule="evenodd"
        d="M10.0891 16.7229C9.78612 16.7229 9.49557 16.8432 9.28135 17.0575C9.06713 17.2717 8.94678 17.5622 8.94678 17.8652C8.94678 18.1682 9.06713 18.4587 9.28135 18.6729C9.49557 18.8872 9.78612 19.0075 10.0891 19.0075H14.6583C14.9612 19.0075 15.2518 18.8872 15.466 18.6729C15.6802 18.4587 15.8006 18.1682 15.8006 17.8652C15.8006 17.5622 15.6802 17.2717 15.466 17.0575C15.2518 16.8432 14.9612 16.7229 14.6583 16.7229H10.0891Z"
    />
    <path fill-rule="evenodd" clip-rule="evenodd"
        d="M10.0891 25.8611C9.78612 25.8611 9.49557 25.9814 9.28135 26.1957C9.06713 26.4099 8.94678 26.7004 8.94678 27.0034C8.94678 27.3063 9.06713 27.5969 9.28135 27.8111C9.49557 28.0253 9.78612 28.1457 10.0891 28.1457H14.6583C14.9612 28.1457 15.2518 28.0253 15.466 27.8111C15.6802 27.5969 15.8006 27.3063 15.8006 27.0034C15.8006 26.7004 15.6802 26.4099 15.466 26.1957C15.2518 25.9814 14.9612 25.8611 14.6583 25.8611H10.0891Z"
    />
</svg>