<svg width="14" height="18" viewBox="0 0 14 18" fill="currentColor" xmlns="http://www.w3.org/2000/svg">
<path d="M2.98008 7C2.50926 7 2.04903 7.1173 1.65756 7.33706C1.2661 7.55682 0.960984 7.86918 0.780813 8.23463C0.600641 8.60009 0.5535 9.00222 0.64535 9.39018C0.737201 9.77814 0.963919 10.1345 1.29683 10.4142C1.62975 10.6939 2.05391 10.8844 2.51567 10.9616C2.97744 11.0387 3.45607 10.9991 3.89104 10.8478C4.32601 10.6964 4.69779 10.44 4.95936 10.1111C5.22093 9.78224 5.36054 9.39556 5.36054 9C5.36054 8.46957 5.10974 7.96086 4.66332 7.58579C4.2169 7.21071 3.61142 7 2.98008 7ZM2.98008 14C2.50926 14 2.04903 14.1173 1.65756 14.3371C1.2661 14.5568 0.960984 14.8692 0.780813 15.2346C0.600641 15.6001 0.5535 16.0022 0.64535 16.3902C0.737201 16.7781 0.963919 17.1345 1.29683 17.4142C1.62975 17.6939 2.05391 17.8844 2.51567 17.9616C2.97744 18.0387 3.45607 17.9991 3.89104 17.8478C4.32601 17.6964 4.69779 17.44 4.95936 17.1111C5.22093 16.7822 5.36054 16.3956 5.36054 16C5.36054 15.4696 5.10974 14.9609 4.66332 14.5858C4.2169 14.2107 3.61142 14 2.98008 14ZM11.3117 4C11.7825 4 12.2428 3.8827 12.6342 3.66294C13.0257 3.44318 13.3308 3.13082 13.511 2.76537C13.6911 2.39992 13.7383 1.99778 13.6464 1.60982C13.5546 1.22186 13.3279 0.865492 12.9949 0.585787C12.662 0.306082 12.2379 0.115601 11.7761 0.0384303C11.3143 -0.0387401 10.8357 0.000866562 10.4007 0.152242C9.96577 0.303617 9.59399 0.559962 9.33242 0.88886C9.07085 1.21776 8.93124 1.60444 8.93124 2C8.93124 2.53043 9.18204 3.03914 9.62846 3.41421C10.0749 3.78929 10.6804 4 11.3117 4ZM2.98008 8.39371e-07C2.50926 8.39371e-07 2.04903 0.117299 1.65756 0.337061C1.2661 0.556824 0.960984 0.869181 0.780813 1.23463C0.600641 1.60009 0.5535 2.00222 0.64535 2.39018C0.737201 2.77814 0.963919 3.13451 1.29683 3.41421C1.62975 3.69392 2.05391 3.8844 2.51567 3.96157C2.97744 4.03874 3.45607 3.99914 3.89104 3.84776C4.32601 3.69638 4.69779 3.44004 4.95936 3.11114C5.22093 2.78224 5.36054 2.39556 5.36054 2C5.36054 1.46957 5.10974 0.96086 4.66332 0.585787C4.2169 0.210714 3.61142 8.39371e-07 2.98008 8.39371e-07ZM11.3117 14C10.8409 14 10.3807 14.1173 9.98919 14.3371C9.59772 14.5568 9.29261 14.8692 9.11244 15.2346C8.93227 15.6001 8.88513 16.0022 8.97698 16.3902C9.06883 16.7781 9.29555 17.1345 9.62846 17.4142C9.96138 17.6939 10.3855 17.8844 10.8473 17.9616C11.3091 18.0387 11.7877 17.9991 12.2227 17.8478C12.6576 17.6964 13.0294 17.44 13.291 17.1111C13.5526 16.7822 13.6922 16.3956 13.6922 16C13.6922 15.4696 13.4414 14.9609 12.9949 14.5858C12.5485 14.2107 11.943 14 11.3117 14ZM11.3117 7C10.8409 7 10.3807 7.1173 9.98919 7.33706C9.59772 7.55682 9.29261 7.86918 9.11244 8.23463C8.93227 8.60009 8.88513 9.00222 8.97698 9.39018C9.06883 9.77814 9.29555 10.1345 9.62846 10.4142C9.96138 10.6939 10.3855 10.8844 10.8473 10.9616C11.3091 11.0387 11.7877 10.9991 12.2227 10.8478C12.6576 10.6964 13.0294 10.44 13.291 10.1111C13.5526 9.78224 13.6922 9.39556 13.6922 9C13.6922 8.46957 13.4414 7.96086 12.9949 7.58579C12.5485 7.21071 11.943 7 11.3117 7Z" fill="currentColor"/>
</svg>
