<svg viewBox="0 0 16 16" fill="currentColor" xmlns="http://www.w3.org/2000/svg">
<path
    d="M15.8689 7.70922L13.9561 5.79638C13.7862 5.62636 13.4886 5.62636 13.3189 5.79638L13.0771 6.03807C12.9015 6.21368 12.9015 6.49543 13.0771 6.67091L13.7884 7.3779H8.62458V2.22422L9.33378 2.94396C9.50367 3.11372 9.79609 3.11372 9.96558 2.94396L10.2049 2.70227C10.3807 2.52653 10.3791 2.24061 10.2035 2.065L8.28767 0.144488C8.20311 0.0601951 8.08968 0.00842285 7.96884 0.00842285H7.9557C7.83499 0.00842285 7.72195 0.060065 7.63752 0.144488L5.76149 2.02325C5.67655 2.10806 5.62972 2.2224 5.62972 2.34312C5.62972 2.46357 5.67655 2.57752 5.76149 2.66234L6.00319 2.90442C6.17307 3.07417 6.47837 3.07443 6.648 2.90455L7.37541 2.18481V7.3779H2.20534L2.92534 6.6622C3.01015 6.57738 3.05698 6.46617 3.05698 6.34571C3.05698 6.22526 3.01015 6.11287 2.92521 6.02831L2.68339 5.78701C2.51363 5.61739 2.21601 5.61791 2.04651 5.78727L0.131197 7.70259C0.0443032 7.78948 -0.00213569 7.90564 7.56841e-05 8.02519C-0.00213569 8.14928 0.0441732 8.26545 0.131067 8.35221L2.00684 10.2284C2.17672 10.3981 2.47448 10.3981 2.6441 10.2284L2.88605 9.98642C2.97074 9.90187 3.01757 9.78856 3.01757 9.66811C3.01757 9.54726 2.97074 9.43292 2.88605 9.34824L2.16605 8.6272H7.37528V13.8315L6.61639 13.0807C6.44689 12.9109 6.14523 12.9109 5.97574 13.0807L5.73184 13.3226C5.64715 13.4072 5.59941 13.5205 5.59941 13.641C5.59941 13.7615 5.64572 13.8747 5.73041 13.9595L7.63115 15.8605C7.71557 15.9448 7.82848 15.9915 7.9531 15.9915C7.95388 15.991 7.9609 15.9915 7.96194 15.9915C8.08266 15.9915 8.19583 15.9449 8.28038 15.8605L10.1935 13.9473C10.278 13.8626 10.325 13.7493 10.325 13.6288C10.325 13.5081 10.2782 13.3949 10.1935 13.3102L9.95154 13.0683C9.78191 12.8985 9.49482 12.8985 9.32506 13.0683L8.62458 13.7795V8.62707H13.8403L13.0892 9.37933C13.0043 9.46414 12.9576 9.57809 12.9576 9.69868C12.9576 9.81926 13.0041 9.93256 13.0892 10.0174L13.3312 10.2595C13.5007 10.4293 13.7986 10.4293 13.968 10.2595L15.8689 8.35858C15.9558 8.27195 16.0021 8.15553 15.9999 8.03611C16.0023 7.91202 15.9558 7.79598 15.8689 7.70922Z"
  />
</svg>
