<svg viewBox="0 0 18 18" fill="currentColor">
  <path
    d="M17.424 5.03318C17.4246 4.92351 17.4036 4.81479 17.3621 4.71326C17.3207 4.61173 17.2596 4.51938 17.1823 4.44152L13.649 0.908184C13.5711 0.83095 13.4788 0.769846 13.3773 0.728375C13.2757 0.686905 13.167 0.665884 13.0573 0.666518C12.9477 0.665884 12.8389 0.686905 12.7374 0.728375C12.6359 0.769846 12.5435 0.83095 12.4657 0.908184L10.1073 3.26652L0.999005 12.3749C0.92177 12.4527 0.860666 12.5451 0.819195 12.6466C0.777725 12.7481 0.756704 12.8568 0.757338 12.9665V16.4999C0.757338 16.7209 0.845135 16.9328 1.00142 17.0891C1.1577 17.2454 1.36966 17.3332 1.59067 17.3332H5.124C5.24061 17.3395 5.35725 17.3213 5.46635 17.2797C5.57546 17.238 5.6746 17.1739 5.75734 17.0915L14.8157 7.98318L17.1823 5.66652C17.2584 5.58575 17.3204 5.49279 17.3657 5.39152C17.3737 5.32509 17.3737 5.25794 17.3657 5.19152C17.3696 5.15273 17.3696 5.11364 17.3657 5.07485L17.424 5.03318ZM4.78234 15.6665H2.424V13.3082L10.699 5.03318L13.0573 7.39152L4.78234 15.6665ZM14.2323 6.21652L11.874 3.85818L13.0573 2.68318L15.4073 5.03318L14.2323 6.21652Z"
  />
</svg>
