<svg viewBox="0 0 25 23" fill="currentColor">
    <path
    d="M13.0234 0.704951C14.017 0.343618 15.1608 0.314498 16.4216 0.734765C17.1201 0.967618 17.4977 1.72271 17.2648 2.42131C17.032 3.1199 16.2768 3.49744 15.5782 3.26458C14.839 3.01818 14.3161 3.07239 13.9346 3.21106C13.5308 3.35792 13.1721 3.6424 12.8574 4.01991C12.5425 4.39792 12.3094 4.82475 12.1533 5.17182C12.0768 5.34192 12.0224 5.48443 11.9885 5.58022C11.9716 5.6279 11.96 5.66338 11.9534 5.68418L11.948 5.70155L11.68 6.66627H16.6665C17.2405 6.66627 17.75 7.03351 17.9314 7.57796L18.6125 9.62114C19.002 9.14907 19.3972 8.70167 19.7917 8.31163C20.2861 7.82306 20.8384 7.36358 21.4413 7.05126C22.0548 6.73354 22.7942 6.532 23.5946 6.69208C24.3168 6.8365 24.785 7.53893 24.6406 8.261C24.4962 8.98308 23.7938 9.4514 23.0717 9.30696C23.0388 9.30038 22.9242 9.28634 22.6678 9.41914C22.401 9.55727 22.0678 9.8114 21.6664 10.2082C21.0185 10.8486 20.3461 11.7014 19.6224 12.6507L20.5586 15.4595C20.5822 15.4987 20.6157 15.5511 20.6577 15.6101C20.7669 15.7627 20.8969 15.9066 21.0249 15.9979C21.1416 16.0813 21.1912 16.0771 21.1992 16.0765C21.206 16.0761 21.3832 16.0641 21.7237 15.7234C22.2444 15.2027 23.0886 15.2027 23.6093 15.7234C24.1301 16.2442 24.1301 17.0883 23.6093 17.6091C22.9534 18.265 22.2133 18.673 21.4042 18.7353C20.5981 18.7973 19.939 18.4994 19.4749 18.1679C19.0196 17.8426 18.6912 17.4447 18.4878 17.1599C18.3822 17.0122 18.3006 16.881 18.2434 16.7834C18.2148 16.7343 18.1918 16.693 18.1748 16.6611C18.1661 16.6453 18.159 16.6318 18.1533 16.6207L18.146 16.6063L18.143 16.6006L18.1417 16.5981C18.1414 16.5975 18.1406 16.5959 19.3332 15.9995L18.1406 16.5959C18.1124 16.5394 18.0882 16.4811 18.0682 16.4213L17.6556 15.1831C17.1676 15.7698 16.6657 16.3214 16.1601 16.7741C15.2128 17.6222 13.7768 18.5463 12.1713 17.9042C11.4877 17.6307 11.1551 16.8547 11.4286 16.171C11.7021 15.4873 12.478 15.1547 13.1617 15.4282C13.223 15.4527 13.5369 15.5434 14.3813 14.7874C15.0818 14.1602 15.8277 13.2309 16.6473 12.1583L15.7056 9.33294H10.9393L8.6179 17.6898C8.60745 17.7275 8.59536 17.7646 8.58165 17.8011L7.33321 17.333C8.58165 17.8011 8.58184 17.8007 8.58165 17.8011L8.58088 17.8033L8.57992 17.8058L8.57741 17.8123L8.57012 17.8313C8.56422 17.8465 8.55629 17.8666 8.5463 17.8914C8.52633 17.9409 8.49808 18.009 8.4615 18.0929C8.38853 18.2601 8.2816 18.4915 8.14032 18.7622C7.8608 19.2979 7.4321 20.0165 6.84554 20.7007C5.68206 22.0581 3.65497 23.5123 0.911571 22.5979C0.212984 22.365 -0.164563 21.6099 0.0682907 20.9114C0.301157 20.2127 1.05625 19.8353 1.75484 20.0681C3.01144 20.487 3.98436 19.9413 4.82086 18.9653C5.23432 18.4829 5.55561 17.9514 5.77609 17.5287C5.88482 17.3203 5.96538 17.1455 6.01741 17.0263C6.03926 16.9762 6.05593 16.9363 6.06737 16.9082L8.17164 9.33294H5.33321C4.59682 9.33294 3.99988 8.73598 3.99988 7.99961C3.99988 7.26322 4.59682 6.66627 5.33321 6.66627H8.91237L9.38448 4.9667L10.6663 5.33292C9.3845 4.96671 9.3843 4.96728 9.38448 4.9667L9.3852 4.96431L9.38601 4.96148L9.38805 4.95451L9.39372 4.93544C9.39821 4.9205 9.40416 4.90112 9.4116 4.87766C9.42649 4.83075 9.44742 4.76727 9.47481 4.68997C9.52942 4.53575 9.61053 4.32408 9.72148 4.07752C9.9403 3.59126 10.2906 2.93475 10.8089 2.31276C11.3276 1.69027 12.0522 1.05808 13.0234 0.704951Z"
  />
  </svg>
