<svg viewBox="0 0 19 27" fill="currentColor" xmlns="http://www.w3.org/2000/svg">
<path
    fill-rule="evenodd"
    clip-rule="evenodd"
    d="M3.25055 7.88776C1.72969 7.45681 0.614746 6.05852 0.614746 4.4006C0.614746 2.40002 2.2384 0.776367 4.23897 0.776367C6.23955 0.776367 7.8632 2.40002 7.8632 4.4006C7.8632 6.05852 6.74826 7.45681 5.2274 7.88776V15.3603C5.59378 15.1731 5.99706 15.0453 6.42537 14.9926C8.18345 14.7725 10.5926 14.472 12.3507 14.2519C13.1757 14.1491 13.7938 13.448 13.7938 12.6164V11.8415C12.2729 11.4105 11.158 10.0122 11.158 8.3543C11.158 6.35373 12.7816 4.73007 14.7822 4.73007C16.7828 4.73007 18.4064 6.35373 18.4064 8.3543C18.4064 10.0122 17.2915 11.4105 15.7706 11.8415V12.6164C15.7706 14.4443 14.4092 15.9863 12.5958 16.2129C10.8377 16.433 8.42858 16.7335 6.6705 16.9536C5.8455 17.0564 5.2274 17.7575 5.2274 18.5891V19.364C6.74826 19.795 7.8632 21.1933 7.8632 22.8512C7.8632 24.8518 6.23955 26.4754 4.23897 26.4754C2.2384 26.4754 0.614746 24.8518 0.614746 22.8512C0.614746 21.1933 1.72969 19.795 3.25055 19.364V7.88776ZM4.23897 21.2038C5.14833 21.2038 5.88635 21.9419 5.88635 22.8512C5.88635 23.7606 5.14833 24.4986 4.23897 24.4986C3.32962 24.4986 2.5916 23.7606 2.5916 22.8512C2.5916 21.9419 3.32962 21.2038 4.23897 21.2038ZM14.7822 6.70692C15.6915 6.70692 16.4296 7.44495 16.4296 8.3543C16.4296 9.26365 15.6915 10.0017 14.7822 10.0017C13.8728 10.0017 13.1348 9.26365 13.1348 8.3543C13.1348 7.44495 13.8728 6.70692 14.7822 6.70692ZM4.23897 2.75322C5.14833 2.75322 5.88635 3.49124 5.88635 4.4006C5.88635 5.30995 5.14833 6.04797 4.23897 6.04797C3.32962 6.04797 2.5916 5.30995 2.5916 4.4006C2.5916 3.49124 3.32962 2.75322 4.23897 2.75322Z"
  />
</svg>
