<svg width="40" height="41" viewBox="0 0 40 41" fill="none" xmlns="http://www.w3.org/2000/svg">
<path fill-rule="evenodd" clip-rule="evenodd" d="M12.1801 6.94836C12.1768 6.94066 12.1735 6.93286 12.1701 6.92498C12.1423 6.86072 12.0588 6.66947 11.9195 6.45258C11.8522 6.34786 11.7045 6.12968 11.4665 5.9006C11.2715 5.71287 10.6999 5.20679 9.77375 5.08343C8.61927 4.92966 7.70097 5.45373 7.18032 6.00985C6.75755 6.46141 6.58574 6.92553 6.52636 7.09867C6.39818 7.47241 6.37238 7.79366 6.36549 7.87933C6.36538 7.88078 6.36527 7.88216 6.36516 7.88347C6.35423 8.01896 6.35241 8.13889 6.35241 8.22186C6.35241 8.32124 6.35111 8.33345 6.34878 8.35528C6.34569 8.38429 6.3408 8.4303 6.33474 8.72036C6.33095 8.90156 6.32899 9.19635 6.37191 9.54416C5.72468 10.4668 5.44244 11.4838 5.44244 12.5559C5.44244 12.84 5.43875 13.1506 5.43485 13.4796C5.42274 14.499 5.40855 15.6944 5.49558 16.8216C5.57306 17.8252 5.55169 18.7506 5.52705 19.8176C5.51366 20.3971 5.49931 21.0184 5.49931 21.7167C5.49931 22.2287 5.48623 22.7485 5.47185 23.3134L5.47144 23.3295C5.4575 23.8771 5.44244 24.4684 5.44244 25.0654C5.44244 25.2668 5.44217 25.4703 5.4419 25.6757C5.43947 27.5184 5.43684 29.5108 5.6263 31.5206C5.70999 32.4085 6.08341 33.2134 6.72159 33.8365C7.15964 34.2642 7.6755 34.5352 7.81264 34.6072C7.82318 34.6127 7.83148 34.6171 7.83734 34.6203C9.22238 35.369 10.8403 35.8266 12.486 35.8477C12.9595 35.8538 13.42 35.858 13.8731 35.8621C14.8462 35.8708 15.7855 35.8793 16.7478 35.9061C18.1707 35.9456 19.729 35.9828 21.3394 35.8504C22.3884 35.7641 23.4404 35.7008 24.4629 35.6756C26.0416 35.6366 27.6189 35.5487 29.1686 35.4345C29.2299 35.43 29.3104 35.4268 29.4623 35.422L29.4938 35.421C29.6241 35.417 29.8066 35.4113 29.9927 35.3998C30.3693 35.3766 31.0204 35.3195 31.6998 35.0652C32.3196 34.8332 32.9216 34.528 33.459 34.187C35.4339 32.9341 35.5337 30.6981 35.5572 30.1706C35.5587 30.1362 35.5599 30.1091 35.5613 30.09L35.5616 30.0862C35.616 29.3345 35.6779 28.4792 35.6701 27.5716C35.6646 26.9273 35.617 26.3104 35.5705 25.7753C35.5587 25.6383 35.5471 25.5088 35.536 25.3845C35.5009 24.9924 35.4705 24.6529 35.4505 24.302C35.3942 23.315 35.4146 22.3086 35.4402 21.1662L35.4417 21.0964C35.4661 20.0106 35.4934 18.795 35.4256 17.561C35.4056 17.1966 35.3546 16.8579 35.3244 16.6571L35.3205 16.6313C35.284 16.3887 35.2735 16.3066 35.2696 16.2446C35.2265 15.5421 35.073 14.9635 34.9805 14.6151C34.9692 14.5724 34.9587 14.5331 34.9496 14.4975C34.9471 14.4879 34.944 14.4753 34.9403 14.46C34.8824 14.2214 34.6612 13.3106 33.9409 12.5777C33.1934 11.817 32.2646 11.5916 31.9552 11.5165C31.9423 11.5134 31.9304 11.5105 31.9196 11.5078C31.1973 11.3296 30.3263 11.3207 30.0809 11.3182C30.0506 11.3179 30.0298 11.3177 30.0201 11.3173C29.8352 11.3093 29.6227 11.2979 29.3943 11.2857C28.8729 11.2578 28.2683 11.2255 27.7186 11.2181C26.9704 11.208 26.2061 11.2104 25.4723 11.2127C25.1625 11.2137 24.8581 11.2147 24.5627 11.2147C24.1691 11.2147 23.7871 11.2009 23.3457 11.185C23.1965 11.1796 23.0405 11.174 22.8749 11.1686C22.2606 11.1484 21.5511 11.1332 20.8172 11.1762C20.6592 11.1854 20.5869 11.184 20.4729 11.1817C20.3679 11.1796 20.2275 11.1768 19.9519 11.181C19.8638 11.0103 19.7825 10.8583 19.7145 10.7311C19.6567 10.6232 19.6085 10.533 19.5736 10.4642C19.5544 10.4261 19.5358 10.39 19.5207 10.3607L19.4805 10.2826C19.4768 10.2754 19.4735 10.2688 19.4704 10.2627C19.4701 10.2616 19.4699 10.2605 19.4696 10.2594C19.4548 10.1963 19.4335 10.1058 19.4085 10.0088C19.3709 9.8631 19.2754 9.49749 19.0966 9.12499C18.6305 8.15406 17.8473 7.66903 17.3424 7.44375C16.843 7.22093 16.3729 7.13913 16.088 7.10186C15.7821 7.06184 15.5043 7.05151 15.3386 7.04674C15.1513 7.04134 15.1262 7.04124 15.1352 7.04232C14.1164 6.95802 13.1016 6.94835 12.1801 6.94836ZM13.8983 29.0395C13.8982 29.0396 13.898 29.0348 13.8979 29.0246C13.8984 29.0342 13.8985 29.0393 13.8983 29.0395ZM20.0913 18.8874C20.0914 18.8874 20.0941 18.8869 20.0992 18.8861C20.0938 18.8871 20.0912 18.8875 20.0913 18.8874Z" fill="#FEF0C7"/>
<path d="M31.5735 9.89477H21.1905L20.6615 8.26319C20.3185 7.30583 19.6823 6.47743 18.841 5.89277C17.9997 5.30811 16.995 4.99612 15.966 5.00004H8.4268C7.11132 5.00004 5.84973 5.51573 4.91955 6.43367C3.98937 7.35161 3.4668 8.5966 3.4668 9.89477V31.1053C3.4668 32.4034 3.98937 33.6484 4.91955 34.5664C5.84973 35.4843 7.11132 36 8.4268 36H31.5735C32.8889 36 34.1505 35.4843 35.0807 34.5664C36.0109 33.6484 36.5335 32.4034 36.5335 31.1053V14.7895C36.5335 13.4913 36.0109 12.2463 35.0807 11.3284C34.1505 10.4105 32.8889 9.89477 31.5735 9.89477ZM33.2268 31.1053C33.2268 31.538 33.0526 31.953 32.7425 32.259C32.4325 32.565 32.012 32.7368 31.5735 32.7368H8.4268C7.98831 32.7368 7.56777 32.565 7.25771 32.259C6.94765 31.953 6.77346 31.538 6.77346 31.1053V9.89477C6.77346 9.46205 6.94765 9.04705 7.25771 8.74107C7.56777 8.43509 7.98831 8.26319 8.4268 8.26319H15.966C16.3126 8.26231 16.6507 8.36895 16.9326 8.56804C17.2144 8.76713 17.4257 9.0486 17.5367 9.37266L18.4295 12.0484C18.5404 12.3725 18.7517 12.654 19.0335 12.8531C19.3154 13.0522 19.6535 13.1588 20.0001 13.1579H31.5735C32.012 13.1579 32.4325 13.3298 32.7425 13.6358C33.0526 13.9418 33.2268 14.3568 33.2268 14.7895V31.1053Z" fill="#FEC84B"/>
</svg>
