<svg viewBox="0 0 27 27" fill="currentColor" xmlns="http://www.w3.org/2000/svg">
<path d="M25.7431 7.19434H23.8882V9.04925H25.7431V7.19434Z" />
<path
    d="M25.7428 6.2666H23.8879C23.3757 6.2666 22.9604 6.68184 22.9604 7.19406V9.04897C22.9604 9.56119 23.3757 9.97643 23.8879 9.97643H25.7428C26.255 9.97643 26.6703 9.56119 26.6703 9.04897V7.19406C26.6703 6.68184 26.255 6.2666 25.7428 6.2666Z"
  />
<path
    d="M19.2506 20.179H2.55636C2.31039 20.179 2.07448 20.0813 1.90055 19.9074C1.72662 19.7334 1.62891 19.4975 1.62891 19.2516V2.55734C1.62891 2.31136 1.72662 2.07546 1.90055 1.90153C2.07448 1.7276 2.31039 1.62988 2.55636 1.62988H19.2506C19.4966 1.62988 19.7325 1.7276 19.9064 1.90153C20.0803 2.07546 20.178 2.31136 20.178 2.55734V19.2516C20.178 19.4975 20.0803 19.7334 19.9064 19.9074C19.7325 20.0813 19.4966 20.179 19.2506 20.179ZM3.48382 18.3241H18.3231V3.4848H3.48382V18.3241Z"
  />
<path
    d="M24.8155 25.7435H8.1213C7.87533 25.7435 7.63943 25.6458 7.46549 25.4718C7.29156 25.2979 7.19385 25.062 7.19385 24.816V19.2513C7.19385 19.0053 7.29156 18.7694 7.46549 18.5955C7.63943 18.4215 7.87533 18.3238 8.1213 18.3238C8.36728 18.3238 8.60318 18.4215 8.77712 18.5955C8.95105 18.7694 9.04876 19.0053 9.04876 19.2513V23.8886H23.8881V9.04925H19.2508C19.0048 9.04925 18.7689 8.95154 18.595 8.7776C18.421 8.60367 18.3233 8.36777 18.3233 8.12179C18.3233 7.87582 18.421 7.63991 18.595 7.46598C18.7689 7.29205 19.0048 7.19434 19.2508 7.19434H24.8155C25.0615 7.19434 25.2974 7.29205 25.4713 7.46598C25.6453 7.63991 25.743 7.87582 25.743 8.12179V24.816C25.743 25.062 25.6453 25.2979 25.4713 25.4718C25.2974 25.6458 25.0615 25.7435 24.8155 25.7435Z"
  />
<path d="M20.1782 1.62988H18.3232V3.4848H20.1782V1.62988Z" />
<path
    d="M20.1784 0.702148H18.3235C17.8112 0.702148 17.396 1.11739 17.396 1.62961V3.48452C17.396 3.99674 17.8112 4.41198 18.3235 4.41198H20.1784C20.6906 4.41198 21.1058 3.99674 21.1058 3.48452V1.62961C21.1058 1.11739 20.6906 0.702148 20.1784 0.702148Z"
  />
<path d="M3.48382 1.62988H1.62891V3.4848H3.48382V1.62988Z" />
<path
    d="M3.48403 0.702148H1.62912C1.1169 0.702148 0.70166 1.11739 0.70166 1.62961V3.48452C0.70166 3.99674 1.1169 4.41198 1.62912 4.41198H3.48403C3.99625 4.41198 4.41149 3.99674 4.41149 3.48452V1.62961C4.41149 1.11739 3.99625 0.702148 3.48403 0.702148Z"
  />
<path d="M9.04876 23.8887H7.19385V25.7436H9.04876V23.8887Z" />
<path
    d="M9.04897 22.9609H7.19406C6.68184 22.9609 6.2666 23.3762 6.2666 23.8884V25.7433C6.2666 26.2555 6.68184 26.6708 7.19406 26.6708H9.04897C9.56119 26.6708 9.97643 26.2555 9.97643 25.7433V23.8884C9.97643 23.3762 9.56119 22.9609 9.04897 22.9609Z"
  />
<path d="M3.48382 18.3242H1.62891V20.1791H3.48382V18.3242Z" />
<path
    d="M3.48403 17.3965H1.62912C1.1169 17.3965 0.70166 17.8117 0.70166 18.3239V20.1789C0.70166 20.6911 1.1169 21.1063 1.62912 21.1063H3.48403C3.99625 21.1063 4.41149 20.6911 4.41149 20.1789V18.3239C4.41149 17.8117 3.99625 17.3965 3.48403 17.3965Z"
  />
<path d="M20.1782 18.3242H18.3232V20.1791H20.1782V18.3242Z" />
<path
    d="M20.1784 17.3965H18.3235C17.8112 17.3965 17.396 17.8117 17.396 18.3239V20.1789C17.396 20.6911 17.8112 21.1063 18.3235 21.1063H20.1784C20.6906 21.1063 21.1058 20.6911 21.1058 20.1789V18.3239C21.1058 17.8117 20.6906 17.3965 20.1784 17.3965Z"
  />
<path d="M25.7431 23.8887H23.8882V25.7436H25.7431V23.8887Z" />
<path
    d="M25.7428 22.9609H23.8879C23.3757 22.9609 22.9604 23.3762 22.9604 23.8884V25.7433C22.9604 26.2555 23.3757 26.6708 23.8879 26.6708H25.7428C26.255 26.6708 26.6703 26.2555 26.6703 25.7433V23.8884C26.6703 23.3762 26.255 22.9609 25.7428 22.9609Z"
  />
</svg>
