<svg viewBox="0 0 32 32" fill="currentColor">
 <path
    d="M14.778 19.696c-.055.06-.106.125-.153.192a.97.97 0 0 0-.116.23.817.817 0 0 0-.077.231 1.74 1.74 0 0 0 0 .257c-.004.168.031.334.103.487a1.152 1.152 0 0 0 .692.692 1.205 1.205 0 0 0 .974 0 1.154 1.154 0 0 0 .692-.692c.056-.156.083-.322.076-.487a1.28 1.28 0 0 0-2.19-.91Zm.91-17.03a12.814 12.814 0 1 0 0 25.628 12.814 12.814 0 0 0 0-25.628Zm0 23.065a10.251 10.251 0 1 1 0-20.502 10.251 10.251 0 0 1 0 20.502Zm0-16.658a3.844 3.844 0 0 0-3.332 1.922 1.282 1.282 0 1 0 2.217 1.282 1.281 1.281 0 0 1 1.115-.641 1.281 1.281 0 1 1 0 2.563 1.281 1.281 0 0 0-1.281 1.281v1.282a1.281 1.281 0 1 0 2.563 0v-.231a3.844 3.844 0 0 0-1.282-7.458Z"
  />
</svg>
