<svg width="25" height="37" viewBox="0 0 25 37" fill="none" xmlns="http://www.w3.org/2000/svg">
<path fill-rule="evenodd" clip-rule="evenodd" d="M4.08222 10.7587C2.01302 10.1708 0.496094 8.26349 0.496094 6.00199C0.496094 3.2731 2.70515 1.05835 5.42702 1.05835C8.14889 1.05835 10.3579 3.2731 10.3579 6.00199C10.3579 8.26349 8.84101 10.1708 6.77182 10.7587V20.9516C7.27028 20.6964 7.81896 20.522 8.40171 20.45C10.7937 20.1498 14.0713 19.74 16.4634 19.4397C17.5857 19.2996 18.4267 18.3432 18.4267 17.2088V16.1517C16.3575 15.5639 14.8406 13.6566 14.8406 11.3951C14.8406 8.66617 17.0497 6.45142 19.7716 6.45142C22.4934 6.45142 24.7024 8.66617 24.7024 11.3951C24.7024 13.6566 23.1855 15.5639 21.1163 16.1517V17.2088C21.1163 19.7021 19.2641 21.8055 16.7968 22.1147C14.4049 22.415 11.1272 22.8248 8.73522 23.125C7.61276 23.2652 6.77182 24.2216 6.77182 25.356V26.413C8.84101 27.0008 10.3579 28.9082 10.3579 31.1696C10.3579 33.8986 8.14889 36.1133 5.42702 36.1133C2.70515 36.1133 0.496094 33.8986 0.496094 31.1696C0.496094 28.9082 2.01302 27.0008 4.08222 26.413V10.7587ZM5.42702 28.9225C6.66423 28.9225 7.66834 29.9293 7.66834 31.1696C7.66834 32.4101 6.66423 33.4167 5.42702 33.4167C4.18981 33.4167 3.18569 32.4101 3.18569 31.1696C3.18569 29.9293 4.18981 28.9225 5.42702 28.9225ZM19.7716 9.14796C21.0087 9.14796 22.0129 10.1547 22.0129 11.3951C22.0129 12.6355 21.0087 13.6421 19.7716 13.6421C18.5343 13.6421 17.5302 12.6355 17.5302 11.3951C17.5302 10.1547 18.5343 9.14796 19.7716 9.14796ZM5.42702 3.75489C6.66423 3.75489 7.66834 4.7616 7.66834 6.00199C7.66834 7.2424 6.66423 8.24911 5.42702 8.24911C4.18981 8.24911 3.18569 7.2424 3.18569 6.00199C3.18569 4.7616 4.18981 3.75489 5.42702 3.75489Z" fill="#0A38C2"/>
</svg>
