<svg viewBox="0 0 27 27" fill="currentColor" xmlns="http://www.w3.org/2000/svg">
    <path
    d="M13.3333 0C10.6963 0 8.11839 0.781986 5.92574 2.24707C3.73308 3.71216 2.02411 5.79454 1.01495 8.23089C0.00577712 10.6672 -0.258267 13.3481 0.256202 15.9345C0.770672 18.5209 2.04055 20.8967 3.90525 22.7614C5.76995 24.6261 8.14572 25.896 10.7321 26.4105C13.3185 26.9249 15.9994 26.6609 18.4358 25.6517C20.8721 24.6426 22.9545 22.9336 24.4196 20.7409C25.8847 18.5483 26.6667 15.9704 26.6667 13.3333C26.6667 11.5824 26.3218 9.84856 25.6517 8.23089C24.9817 6.61321 23.9995 5.14336 22.7614 3.90524C21.5233 2.66713 20.0535 1.685 18.4358 1.01494C16.8181 0.344877 15.0843 0 13.3333 0ZM13.3333 24C11.2237 24 9.16138 23.3744 7.40726 22.2023C5.65313 21.0303 4.28596 19.3644 3.47862 17.4153C2.67129 15.4662 2.46005 13.3215 2.87163 11.2524C3.28321 9.18324 4.29911 7.28262 5.79087 5.79086C7.28263 4.2991 9.18325 3.2832 11.2524 2.87162C13.3215 2.46005 15.4662 2.67128 17.4153 3.47862C19.3644 4.28595 21.0303 5.65313 22.2023 7.40725C23.3744 9.16137 24 11.2237 24 13.3333C24 16.1623 22.8762 18.8754 20.8758 20.8758C18.8754 22.8762 16.1623 24 13.3333 24ZM18.6667 12H14.6667V8C14.6667 7.64638 14.5262 7.30724 14.2761 7.05719C14.0261 6.80714 13.687 6.66667 13.3333 6.66667C12.9797 6.66667 12.6406 6.80714 12.3905 7.05719C12.1405 7.30724 12 7.64638 12 8V12H8.00001C7.64638 12 7.30725 12.1405 7.0572 12.3905C6.80715 12.6406 6.66667 12.9797 6.66667 13.3333C6.66667 13.687 6.80715 14.0261 7.0572 14.2761C7.30725 14.5262 7.64638 14.6667 8.00001 14.6667H12V18.6667C12 19.0203 12.1405 19.3594 12.3905 19.6095C12.6406 19.8595 12.9797 20 13.3333 20C13.687 20 14.0261 19.8595 14.2761 19.6095C14.5262 19.3594 14.6667 19.0203 14.6667 18.6667V14.6667H18.6667C19.0203 14.6667 19.3594 14.5262 19.6095 14.2761C19.8595 14.0261 20 13.687 20 13.3333C20 12.9797 19.8595 12.6406 19.6095 12.3905C19.3594 12.1405 19.0203 12 18.6667 12Z"
  />
  </svg>
