<svg  viewBox="0 0 48 48" fill="currentColor" xmlns="http://www.w3.org/2000/svg">
<circle cx="24" cy="24" r="24" fill="black" fill-opacity="0.35"/>
<path d="M16.1067 24.5051C16.1701 24.6688 16.2653 24.8183 16.3867 24.9451L23.0533 31.6118C23.1777 31.7361 23.3252 31.8347 23.4877 31.902C23.6501 31.9693 23.8242 32.0039 24 32.0039C24.3551 32.0039 24.6956 31.8629 24.9467 31.6118C25.071 31.4875 25.1696 31.3399 25.2369 31.1774C25.3042 31.015 25.3388 30.8409 25.3388 30.6651C25.3388 30.31 25.1977 29.9695 24.9467 29.7185L20.5467 25.3318L30.6667 25.3318C31.0203 25.3318 31.3594 25.1913 31.6095 24.9413C31.8595 24.6912 32 24.3521 32 23.9985C32 23.6448 31.8595 23.3057 31.6095 23.0556C31.3594 22.8056 31.0203 22.6651 30.6667 22.6651H20.5467L24.9467 18.2785C25.0716 18.1545 25.1708 18.007 25.2385 17.8446C25.3062 17.6821 25.3411 17.5078 25.3411 17.3318C25.3411 17.1558 25.3062 16.9815 25.2385 16.819C25.1708 16.6565 25.0716 16.5091 24.9467 16.3851C24.8227 16.2601 24.6752 16.161 24.5128 16.0933C24.3503 16.0256 24.176 15.9907 24 15.9907C23.824 15.9907 23.6497 16.0256 23.4872 16.0933C23.3248 16.161 23.1773 16.2601 23.0533 16.3851L16.3867 23.0518C16.2653 23.1786 16.1701 23.3281 16.1067 23.4918C15.9733 23.8164 15.9733 24.1805 16.1067 24.5051Z" fill="white"/>
</svg>
