<svg width="26" height="24" viewBox="0 0 26 24" fill="currentColor" xmlns="http://www.w3.org/2000/svg">
<path d="M11.7823 0.924618L16.036 5.17831C16.4614 5.60368 16.4614 6.24173 16.036 6.6671L11.7823 10.9208C11.3569 11.3462 10.7189 11.3462 10.2935 10.9208C9.86815 10.4954 9.86815 9.85737 10.2935 9.432L12.7394 6.98613H4.65738C3.48761 6.98613 2.53053 7.94321 2.53053 9.11298V15.4935C2.53053 16.6633 3.48761 17.6204 4.65738 17.6204H6.78422C7.42228 17.6204 7.84765 18.0457 7.84765 18.6838C7.84765 19.3218 7.42228 19.7472 6.78422 19.7472H4.65738C2.31785 19.7472 0.403687 17.833 0.403687 15.4935V9.11298C0.403687 6.77345 2.31785 4.85928 4.65738 4.85928H12.7394L10.2935 2.41341C9.86815 1.98804 9.86815 1.34999 10.2935 0.924618C10.7189 0.499249 11.3569 0.499249 11.7823 0.924618ZM18.4819 5.92271C18.4819 6.56076 18.9072 6.98613 19.5453 6.98613H21.6721C22.8419 6.98613 23.799 7.94321 23.799 9.11298V15.4935C23.799 16.6633 22.8419 17.6204 21.6721 17.6204H18.4819H13.5901L16.036 15.1745C16.4614 14.7491 16.4614 14.1111 16.036 13.6857C15.6106 13.2603 14.9726 13.2603 14.5472 13.6857L10.2935 17.9394C9.86815 18.3648 9.86815 19.0028 10.2935 19.4282L14.5472 23.6819C14.9726 24.1072 15.6106 24.1072 16.036 23.6819C16.4614 23.2565 16.4614 22.6185 16.036 22.1931L13.5901 19.7472H18.4819H21.6721C24.0117 19.7472 25.9258 17.833 25.9258 15.4935V9.11298C25.9258 6.77345 24.0117 4.85928 21.6721 4.85928H19.5453C18.9072 4.85928 18.4819 5.28465 18.4819 5.92271Z"/>
</svg>
