<svg viewBox="0 0 13 13" fill="currentColor">
<path d="M6.50004 9.20809C6.28578 9.20809 6.07633 9.27163 5.89817 9.39066C5.72002 9.5097 5.58117 9.67889 5.49917 9.87685C5.41718 10.0748 5.39572 10.2926 5.43752 10.5028C5.47932 10.7129 5.5825 10.9059 5.73401 11.0575C5.88551 11.209 6.07855 11.3121 6.28869 11.3539C6.49884 11.3957 6.71666 11.3743 6.91461 11.2923C7.11257 11.2103 7.28176 11.0714 7.4008 10.8933C7.51984 10.7151 7.58337 10.5057 7.58337 10.2914C7.58337 10.0041 7.46924 9.72855 7.26607 9.52539C7.06291 9.32223 6.78736 9.20809 6.50004 9.20809ZM6.50004 3.79142C6.7143 3.79142 6.92375 3.72789 7.10191 3.60885C7.28006 3.48981 7.41891 3.32062 7.50091 3.12266C7.5829 2.92471 7.60436 2.70689 7.56256 2.49674C7.52076 2.2866 7.41758 2.09356 7.26607 1.94206C7.11457 1.79055 6.92153 1.68737 6.71139 1.64557C6.50124 1.60377 6.28342 1.62522 6.08547 1.70722C5.88751 1.78921 5.71832 1.92807 5.59928 2.10622C5.48024 2.28437 5.41671 2.49383 5.41671 2.70809C5.41671 2.99541 5.53084 3.27096 5.73401 3.47412C5.93717 3.67729 6.21272 3.79142 6.50004 3.79142ZM6.50004 7.58309C6.7143 7.58309 6.92375 7.51955 7.10191 7.40051C7.28006 7.28148 7.41891 7.11228 7.50091 6.91433C7.5829 6.71638 7.60436 6.49855 7.56256 6.28841C7.52076 6.07826 7.41758 5.88523 7.26607 5.73372C7.11457 5.58222 6.92153 5.47904 6.71139 5.43724C6.50124 5.39544 6.28342 5.41689 6.08547 5.49889C5.88751 5.58088 5.71832 5.71973 5.59928 5.89789C5.48024 6.07604 5.41671 6.28549 5.41671 6.49976C5.41671 6.78707 5.53084 7.06262 5.73401 7.26579C5.93717 7.46895 6.21272 7.58309 6.50004 7.58309Z" fill="#F8FAFC"/>
</svg>
