<svg viewBox="0 0 24 15" fill="currentColor" xmlns="http://www.w3.org/2000/svg">
<path
    d="M22.5331 8.50467H14.9785C13.6801 8.50467 12.3816 8.14098 11.2012 7.53483C10.0208 6.92868 9.07651 5.95884 8.25023 4.86776C7.18787 3.413 5.41727 2.44316 3.52863 2.44316H1.28587C0.577629 2.44316 0.105469 1.95824 0.105469 1.23086C0.105469 0.503476 0.577629 0.0185547 1.28587 0.0185547H3.52863C6.12551 0.0185547 8.60435 1.35209 10.1389 3.53423C10.611 4.26161 11.3193 4.98899 12.1455 5.35268C12.9718 5.83761 13.9161 5.95884 14.7424 5.95884H22.5331C23.2413 5.95884 23.7135 6.44376 23.7135 7.17114C23.7135 7.89852 23.2413 8.50467 22.5331 8.50467Z"
  />
<path
    d="M3.64667 14.5662H1.28587C0.577629 14.5662 0.105469 14.0813 0.105469 13.3539C0.105469 12.6265 0.577629 12.1416 1.28587 12.1416H3.64667C4.59099 12.1416 5.53531 11.8991 6.24355 11.5354C7.06983 11.0505 7.77807 10.4444 8.25023 9.71699C8.95847 8.62591 10.0208 7.7773 11.2012 7.04992C12.3816 6.44377 13.6801 6.08008 14.9785 6.08008H21.3527C22.0609 6.08008 22.5331 6.565 22.5331 7.29238C22.5331 8.01976 22.0609 8.50468 21.3527 8.50468H14.8605C13.9161 8.50468 12.9718 8.74714 12.2636 9.11083C11.4373 9.59576 10.7291 10.2019 10.2569 10.9293C9.54867 12.0204 8.48631 12.869 7.30591 13.5964C6.12551 14.2025 4.82707 14.5662 3.64667 14.5662Z"
  />
<path
    d="M18.9919 12.1418C18.6378 12.1418 18.4017 12.0205 18.1656 11.7781C17.6935 11.2932 17.6935 10.5658 18.1656 10.0809L20.8806 7.29257L18.1656 4.50427C17.6935 4.01935 17.6935 3.29197 18.1656 2.80705C18.6378 2.32213 19.346 2.32213 19.8182 2.80705L23.3594 6.44396C23.8316 6.92888 23.8316 7.65626 23.3594 8.14118L19.8182 11.7781C19.5821 12.0205 19.346 12.1418 18.9919 12.1418Z"
  />
</svg>
