<svg  viewBox="0 0 12 12" fill="currentColor" xmlns="http://www.w3.org/2000/svg">
    <path d="M10.36 3.99985L3.92002 0.306521C3.57154 0.105294 3.17602 -0.000120097 2.77362 0.000985165C2.37121 0.00209043 1.97627 0.109676 1.62891 0.312814C1.28154 0.515952 0.994123 0.807407 0.795851 1.15757C0.597578 1.50774 0.495513 1.90414 0.500021 2.30652L0.500021 9.71985C0.500021 10.3245 0.740235 10.9045 1.16782 11.3321C1.5954 11.7596 2.17533 11.9999 2.78002 11.9999C3.18031 11.9992 3.57341 11.8934 3.92002 11.6932L10.36 7.99985C10.7061 7.79958 10.9934 7.51183 11.1931 7.16548C11.3928 6.81912 11.4979 6.42634 11.4979 6.02652C11.4979 5.62671 11.3928 5.23392 11.1931 4.88756C10.9934 4.54121 10.7061 4.25346 10.36 4.05319V3.99985ZM9.69335 6.79319L3.25335 10.5399C3.10901 10.6217 2.94593 10.6647 2.78002 10.6647C2.61411 10.6647 2.45103 10.6217 2.30669 10.5399C2.16275 10.4568 2.04323 10.3372 1.96014 10.1933C1.87705 10.0493 1.83333 9.88606 1.83335 9.71985L1.83335 2.27985C1.83333 2.11365 1.87705 1.95037 1.96014 1.80643C2.04323 1.66249 2.16275 1.54296 2.30669 1.45985C2.45162 1.37929 2.61422 1.33578 2.78002 1.33319C2.94571 1.33659 3.10811 1.38005 3.25335 1.45985L9.69335 5.17986C9.83734 5.26292 9.95692 5.38244 10.0401 5.52638C10.1232 5.67033 10.167 5.83362 10.167 5.99985C10.167 6.16608 10.1232 6.32938 10.0401 6.47333C9.95692 6.61727 9.83734 6.73679 9.69335 6.81985V6.79319Z"/>
</svg>
