<svg width="18" height="18" viewBox="0 0 18 18" fill="currentColor" xmlns="http://www.w3.org/2000/svg">
    <path d="M12.3332 7.55834L8.16651 5.15C7.91327 5.00379 7.62602 4.92678 7.3336 4.92671C7.04118 4.92663 6.75389 5.0035 6.50058 5.14957C6.24726 5.29565 6.03684 5.50581 5.89044 5.75893C5.74404 6.01206 5.66681 6.29925 5.66651 6.59167V11.4083C5.66681 11.7006 5.74396 11.9877 5.89022 12.2407C6.03649 12.4937 6.24673 12.7039 6.49984 12.85C6.75321 12.9963 7.04061 13.0733 7.33317 13.0733C7.62574 13.0733 7.91314 12.9963 8.16651 12.85L12.3332 10.4417C12.5857 10.2952 12.7954 10.0849 12.9411 9.83186C13.0868 9.57884 13.1636 9.29198 13.1636 9C13.1636 8.70802 13.0868 8.42116 12.9411 8.16815C12.7954 7.91513 12.5857 7.70484 12.3332 7.55834ZM11.4998 9L7.33317 11.4083V6.59167L11.4998 9ZM8.99984 0.666668C7.35166 0.666668 5.7405 1.15541 4.37009 2.07109C2.99968 2.98677 1.93158 4.28825 1.30084 5.81097C0.670115 7.33369 0.505087 9.00925 0.82663 10.6258C1.14817 12.2423 1.94185 13.7271 3.10728 14.8926C4.27272 16.058 5.75758 16.8517 7.37409 17.1732C8.9906 17.4948 10.6662 17.3297 12.1889 16.699C13.7116 16.0683 15.0131 15.0002 15.9288 13.6298C16.8444 12.2593 17.3332 10.6482 17.3332 9C17.3332 7.90565 17.1176 6.82202 16.6988 5.81097C16.28 4.79993 15.6662 3.88127 14.8924 3.10744C14.1186 2.33362 13.1999 1.71979 12.1889 1.30101C11.1778 0.882216 10.0942 0.666668 8.99984 0.666668ZM8.99984 15.6667C7.6813 15.6667 6.39237 15.2757 5.29604 14.5431C4.19971 13.8106 3.34523 12.7694 2.84064 11.5512C2.33606 10.3331 2.20404 8.99261 2.46127 7.6994C2.71851 6.40619 3.35345 5.21831 4.2858 4.28596C5.21815 3.35361 6.40603 2.71867 7.69924 2.46143C8.99245 2.2042 10.3329 2.33622 11.5511 2.8408C12.7692 3.34539 13.8104 4.19987 14.543 5.2962C15.2755 6.39253 15.6665 7.68146 15.6665 9C15.6665 10.7681 14.9641 12.4638 13.7139 13.714C12.4636 14.9643 10.768 15.6667 8.99984 15.6667Z"/>
</svg>
