<svg viewBox="0 0 26 26" fill="currentColor" xmlns="http://www.w3.org/2000/svg">
<path
    fill-rule="evenodd"
    clip-rule="evenodd"
    d="M17.2997 4.20908C16.1554 4.38246 15.226 4.9418 14.9045 5.26323L13.6581 6.50971L19.3647 12.2163L20.6112 10.9698C20.9326 10.6483 21.4919 9.71894 21.6653 8.57465C21.831 7.48085 21.6338 6.28586 20.6112 5.26324C19.5885 4.24061 18.3935 4.04335 17.2997 4.20908ZM17.0109 2.30265C18.5683 2.06666 20.4264 2.3515 21.9746 3.89981C23.5229 5.4481 23.8078 7.30604 23.5717 8.86351C23.3434 10.3704 22.6173 11.6906 21.9746 12.3332L20.0464 14.2615C19.6699 14.638 19.0595 14.638 18.683 14.2615L11.613 7.19143C11.4321 7.01063 11.3306 6.76541 11.3306 6.50971C11.3306 6.25402 11.4321 6.0088 11.613 5.828L13.5412 3.89982C14.1838 3.2571 15.5039 2.53096 17.0109 2.30265Z"
  />
<path
    fill-rule="evenodd"
    clip-rule="evenodd"
    d="M25.188 0.685694C25.5645 1.06219 25.5645 1.67263 25.188 2.04913L21.9744 5.26278C21.5978 5.63928 20.9875 5.63944 20.611 5.26295C20.2345 4.88645 20.2345 4.27584 20.611 3.89934L23.8246 0.685694C24.2012 0.309196 24.8115 0.309196 25.188 0.685694Z"
  />
<path
    fill-rule="evenodd"
    clip-rule="evenodd"
    d="M6.5092 11.3301C6.76489 11.3301 7.01012 11.4316 7.19092 11.6125L14.2609 18.6825C14.6374 19.059 14.6374 19.6694 14.2609 20.0459L12.3328 21.9741C11.6901 22.6168 10.3699 23.343 8.863 23.5713C7.30554 23.8073 5.44759 23.5224 3.89929 21.9741M3.89929 21.9741C2.35099 20.4259 2.06618 18.5679 2.30216 17.0104C2.53048 15.5035 3.25661 14.1834 3.89926 13.5407L5.82748 11.6125C6.00828 11.4316 6.25351 11.3301 6.5092 11.3301M6.5092 13.6577L5.26275 14.904C4.94131 15.2255 4.38197 16.1549 4.20858 17.2992C4.04286 18.393 4.2401 19.588 5.26273 20.6107C6.28535 21.6333 7.48036 21.8306 8.57415 21.6649C9.71848 21.4915 10.6478 20.9321 10.9693 20.6107L12.2158 19.3642L6.5092 13.6577Z"
  />
<path
    fill-rule="evenodd"
    clip-rule="evenodd"
    d="M15.5472 14.8254C15.9237 15.2019 15.9237 15.8122 15.5472 16.1887L12.9763 18.7596C12.5998 19.1361 11.9895 19.1361 11.6129 18.7596C11.2364 18.3831 11.2364 17.7728 11.6129 17.3963L14.1839 14.8254C14.5604 14.4488 15.1707 14.4488 15.5472 14.8254Z"
  />
<path
    fill-rule="evenodd"
    clip-rule="evenodd"
    d="M5.26278 20.6105C5.63928 20.987 5.63977 21.5974 5.26327 21.9739L2.04962 25.1875C1.67312 25.564 1.06268 25.564 0.686182 25.1875C0.309684 24.811 0.309684 24.2007 0.686182 23.8242L3.89983 20.6105C4.27633 20.234 4.88628 20.234 5.26278 20.6105Z"
  />
<path
    fill-rule="evenodd"
    clip-rule="evenodd"
    d="M11.0477 10.3263C11.4243 10.7029 11.4243 11.3132 11.0477 11.6897L8.47686 14.2606C8.10037 14.6371 7.48993 14.6371 7.11343 14.2606C6.73693 13.8841 6.73693 13.2738 7.11343 12.8973L9.68435 10.3263C10.0608 9.94982 10.6712 9.94982 11.0477 10.3263Z"
  />
</svg>
