<svg viewBox="0 0 37 37" fill="currentColor">
<path
    d="M18.0645 0.220779C8.13885 0.220779 0.0644531 8.29518 0.0644531 18.2208C0.0644531 28.1464 8.13885 36.2208 18.0645 36.2208C27.9901 36.2208 36.0645 28.1464 36.0645 18.2208C36.0645 8.29518 27.9901 0.220779 18.0645 0.220779ZM25.9395 19.7207H19.5644V26.0958C19.5644 26.9239 18.8925 27.5957 18.0645 27.5957C17.2364 27.5957 16.5645 26.9239 16.5645 26.0958V19.7207H10.1895C9.36136 19.7207 8.68954 19.0489 8.68954 18.2208C8.68954 17.3927 9.36136 16.7209 10.1895 16.7209H16.5645V10.3458C16.5645 9.51768 17.2364 8.84587 18.0645 8.84587C18.8925 8.84587 19.5644 9.51768 19.5644 10.3458V16.7209H25.9395C26.7675 16.7209 27.4394 17.3927 27.4394 18.2208C27.4394 19.0489 26.7675 19.7207 25.9395 19.7207Z"
  />
</svg>
