<svg viewBox="0 0 20 22" fill="currentColor" xmlns="http://www.w3.org/2000/svg">
    <path d="M0.500031 7.86013L9.50003 13.0601C9.65205 13.1479 9.82449 13.1941 10 13.1941C10.1756 13.1941 10.348 13.1479 10.5 13.0601L19.5 7.86013C19.6512 7.77287 19.7768 7.64758 19.8646 7.49671C19.9523 7.34584 19.999 7.17464 20 7.00013C20.0007 6.82392 19.9549 6.65065 19.8671 6.49787C19.7792 6.3451 19.6526 6.21823 19.5 6.13013L10.5 0.940127C10.348 0.852359 10.1756 0.806152 10 0.806152C9.82449 0.806152 9.65205 0.852359 9.50003 0.940127L0.500031 6.13013C0.347426 6.21823 0.220812 6.3451 0.133009 6.49787C0.0452054 6.65065 -0.000669067 6.82392 3.05002e-05 7.00013C0.00108387 7.17464 0.0477894 7.34584 0.135505 7.49671C0.223221 7.64758 0.348893 7.77287 0.500031 7.86013ZM10 3.00013L17 7.00013L10 11.0001L3.00003 7.00013L10 3.00013ZM18.5 10.1701L10 15.0001L1.50003 10.1301C1.3859 10.064 1.25981 10.0211 1.12903 10.0039C0.998253 9.98676 0.865367 9.99561 0.738027 10.03C0.610687 10.0644 0.491408 10.1236 0.387061 10.2043C0.282714 10.285 0.195361 10.3855 0.130031 10.5001C-0.000341877 10.7297 -0.0346082 11.0016 0.0347087 11.2564C0.104026 11.5112 0.271299 11.7282 0.500031 11.8601L9.50003 17.0601C9.65205 17.1479 9.82449 17.1941 10 17.1941C10.1756 17.1941 10.348 17.1479 10.5 17.0601L19.5 11.8601C19.7288 11.7282 19.896 11.5112 19.9654 11.2564C20.0347 11.0016 20.0004 10.7297 19.87 10.5001C19.8047 10.3855 19.7173 10.285 19.613 10.2043C19.5087 10.1236 19.3894 10.0644 19.262 10.03C19.1347 9.99561 19.0018 9.98676 18.871 10.0039C18.7402 10.0211 18.6142 10.064 18.5 10.1301V10.1701ZM18.5 14.1701L10 19.0001L1.50003 14.1301C1.3859 14.064 1.25981 14.0211 1.12903 14.0039C0.998253 13.9868 0.865367 13.9956 0.738027 14.03C0.610687 14.0644 0.491408 14.1236 0.387061 14.2043C0.282714 14.285 0.195361 14.3855 0.130031 14.5001C-0.000341877 14.7297 -0.0346082 15.0016 0.0347087 15.2564C0.104026 15.5112 0.271299 15.7282 0.500031 15.8601L9.50003 21.0601C9.65205 21.1479 9.82449 21.1941 10 21.1941C10.1756 21.1941 10.348 21.1479 10.5 21.0601L19.5 15.8601C19.7288 15.7282 19.896 15.5112 19.9654 15.2564C20.0347 15.0016 20.0004 14.7297 19.87 14.5001C19.8047 14.3855 19.7173 14.285 19.613 14.2043C19.5087 14.1236 19.3894 14.0644 19.262 14.03C19.1347 13.9956 19.0018 13.9868 18.871 14.0039C18.7402 14.0211 18.6142 14.064 18.5 14.1301V14.1701Z" />
</svg>
