<svg viewBox="0 0 14 14" fill="currentColor" xmlns="http://www.w3.org/2000/svg">
<path
    d="M13 4.33337C13.1768 4.33337 13.3464 4.26314 13.4714 4.13811C13.5964 4.01309 13.6666 3.84352 13.6666 3.66671V1.00004C13.6656 0.912923 13.6475 0.826856 13.6133 0.746707C13.5457 0.583808 13.4162 0.454357 13.2533 0.386707C13.1732 0.352547 13.0871 0.334427 13 0.333374H10.3333C10.1565 0.333374 9.98693 0.403612 9.86191 0.528636C9.73688 0.65366 9.66665 0.82323 9.66665 1.00004C9.66665 1.17685 9.73688 1.34642 9.86191 1.47145C9.98693 1.59647 10.1565 1.66671 10.3333 1.66671H11.3933L6.99998 6.06004L2.60665 1.66671H3.66665C3.84346 1.66671 4.01303 1.59647 4.13805 1.47145C4.26308 1.34642 4.33331 1.17685 4.33331 1.00004C4.33331 0.82323 4.26308 0.65366 4.13805 0.528636C4.01303 0.403612 3.84346 0.333374 3.66665 0.333374H0.99998C0.912862 0.334427 0.826794 0.352547 0.746646 0.386707C0.583747 0.454357 0.454296 0.583808 0.386646 0.746707C0.352486 0.826856 0.334366 0.912923 0.333313 1.00004V3.66671C0.333313 3.84352 0.403551 4.01309 0.528575 4.13811C0.653599 4.26314 0.823169 4.33337 0.99998 4.33337C1.17679 4.33337 1.34636 4.26314 1.47138 4.13811C1.59641 4.01309 1.66665 3.84352 1.66665 3.66671V2.60671L6.05998 7.00004L1.66665 11.3934V10.3334C1.66665 10.1566 1.59641 9.98699 1.47138 9.86197C1.34636 9.73695 1.17679 9.66671 0.99998 9.66671C0.823169 9.66671 0.653599 9.73695 0.528575 9.86197C0.403551 9.98699 0.333313 10.1566 0.333313 10.3334V13C0.334366 13.0872 0.352486 13.1732 0.386646 13.2534C0.454296 13.4163 0.583747 13.5457 0.746646 13.6134C0.826794 13.6475 0.912862 13.6657 0.99998 13.6667H3.66665C3.84346 13.6667 4.01303 13.5965 4.13805 13.4714C4.26308 13.3464 4.33331 13.1769 4.33331 13C4.33331 12.8232 4.26308 12.6537 4.13805 12.5286C4.01303 12.4036 3.84346 12.3334 3.66665 12.3334H2.60665L6.99998 7.94004L11.3933 12.3334H10.3333C10.1565 12.3334 9.98693 12.4036 9.86191 12.5286C9.73688 12.6537 9.66665 12.8232 9.66665 13C9.66665 13.1769 9.73688 13.3464 9.86191 13.4714C9.98693 13.5965 10.1565 13.6667 10.3333 13.6667H13C13.0871 13.6657 13.1732 13.6475 13.2533 13.6134C13.4162 13.5457 13.5457 13.4163 13.6133 13.2534C13.6475 13.1732 13.6656 13.0872 13.6666 13V10.3334C13.6666 10.1566 13.5964 9.98699 13.4714 9.86197C13.3464 9.73695 13.1768 9.66671 13 9.66671C12.8232 9.66671 12.6536 9.73695 12.5286 9.86197C12.4036 9.98699 12.3333 10.1566 12.3333 10.3334V11.3934L7.93998 7.00004L12.3333 2.60671V3.66671C12.3333 3.84352 12.4036 4.01309 12.5286 4.13811C12.6536 4.26314 12.8232 4.33337 13 4.33337Z"
  />
</svg>
