<svg viewBox="0 0 48 48" fill="currentColor" xmlns="http://www.w3.org/2000/svg">
<circle cx="24" cy="24" r="24" fill="black" fill-opacity="0.35"/>
<path d="M31.8933 23.4949C31.8299 23.3312 31.7347 23.1817 31.6133 23.0549L24.9467 16.3882C24.8223 16.2639 24.6748 16.1653 24.5123 16.098C24.3499 16.0307 24.1758 15.9961 24 15.9961C23.6449 15.9961 23.3044 16.1371 23.0533 16.3882C22.929 16.5125 22.8304 16.6601 22.7631 16.8226C22.6958 16.985 22.6612 17.1591 22.6612 17.3349C22.6612 17.69 22.8023 18.0305 23.0533 18.2815L27.4533 22.6682H17.3333C16.9797 22.6682 16.6406 22.8087 16.3905 23.0587C16.1405 23.3088 16 23.6479 16 24.0015C16 24.3552 16.1405 24.6943 16.3905 24.9444C16.6406 25.1944 16.9797 25.3349 17.3333 25.3349H27.4533L23.0533 29.7215C22.9284 29.8455 22.8292 29.993 22.7615 30.1554C22.6938 30.3179 22.6589 30.4922 22.6589 30.6682C22.6589 30.8442 22.6938 31.0185 22.7615 31.181C22.8292 31.3435 22.9284 31.4909 23.0533 31.6149C23.1773 31.7399 23.3248 31.839 23.4872 31.9067C23.6497 31.9744 23.824 32.0093 24 32.0093C24.176 32.0093 24.3503 31.9744 24.5128 31.9067C24.6752 31.839 24.8227 31.7399 24.9467 31.6149L31.6133 24.9482C31.7347 24.8214 31.8299 24.6719 31.8933 24.5082C32.0267 24.1836 32.0267 23.8195 31.8933 23.4949Z" fill="white"/>
</svg>
