<svg viewBox="0 0 28 28" fill="currentColor" xmlns="http://www.w3.org/2000/svg">
    <path
    d="M18.0003 8.66663H10.0003C9.64671 8.66663 9.30757 8.8071 9.05752 9.05715C8.80747 9.3072 8.667 9.64634 8.667 9.99996V18C8.667 18.3536 8.80747 18.6927 9.05752 18.9428C9.30757 19.1928 9.64671 19.3333 10.0003 19.3333H18.0003C18.354 19.3333 18.6931 19.1928 18.9431 18.9428C19.1932 18.6927 19.3337 18.3536 19.3337 18V9.99996C19.3337 9.64634 19.1932 9.3072 18.9431 9.05715C18.6931 8.8071 18.354 8.66663 18.0003 8.66663ZM16.667 16.6666H11.3337V11.3333H16.667V16.6666ZM14.0003 0.666626C11.3632 0.666626 8.78538 1.44861 6.59273 2.9137C4.40007 4.37878 2.69111 6.46117 1.68194 8.89751C0.672769 11.3339 0.408725 14.0148 0.923194 16.6012C1.43766 19.1876 2.70754 21.5634 4.57224 23.4281C6.43694 25.2928 8.81271 26.5626 11.3991 27.0771C13.9855 27.5916 16.6664 27.3275 19.1028 26.3184C21.5391 25.3092 23.6215 23.6002 25.0866 21.4076C26.5517 19.2149 27.3337 16.637 27.3337 14C27.3337 12.249 26.9888 10.5152 26.3187 8.89751C25.6487 7.27984 24.6665 5.80998 23.4284 4.57187C22.1903 3.33375 20.7205 2.35163 19.1028 1.68157C17.4851 1.0115 15.7513 0.666626 14.0003 0.666626V0.666626ZM14.0003 24.6666C11.8907 24.6666 9.82837 24.041 8.07425 22.869C6.32012 21.6969 4.95295 20.031 4.14562 18.0819C3.33828 16.1328 3.12705 13.9881 3.53862 11.919C3.9502 9.84987 4.9661 7.94925 6.45786 6.45749C7.94962 4.96573 9.85024 3.94983 11.9194 3.53825C13.9885 3.12667 16.1332 3.33791 18.0823 4.14524C20.0314 4.95258 21.6973 6.31975 22.8693 8.07388C24.0414 9.828 24.667 11.8903 24.667 14C24.667 16.8289 23.5432 19.542 21.5428 21.5424C19.5424 23.5428 16.8293 24.6666 14.0003 24.6666V24.6666Z"
  />
  </svg>
