<svg viewBox="0 0 27 27" fill="currentColor" xmlns="http://www.w3.org/2000/svg">
<path
    d="M10.1115 26.9908C9.89708 26.9908 9.68887 26.9068 9.5343 26.7513C9.33387 26.5508 9.2521 26.262 9.31652 25.9866L10.5038 20.949C10.5385 20.8008 10.6137 20.6658 10.7216 20.5591L21.1191 10.1616C22.0437 9.2358 23.6591 9.2346 24.5849 10.1616L26.125 11.7017C26.5879 12.1636 26.8428 12.78 26.8428 13.4336C26.8428 14.0881 26.5879 14.7046 26.125 15.1665L15.7275 25.5628C15.6196 25.6707 15.4845 25.7459 15.3376 25.7806L10.2999 26.9679C10.2369 26.9842 10.1737 26.9908 10.1115 26.9908ZM12.0404 21.5491L11.2094 25.076L14.7363 24.2449L24.9694 14.0119C25.124 13.8572 25.209 13.6526 25.209 13.4346C25.209 13.2168 25.124 13.011 24.9694 12.8574L23.4292 11.3171C23.1101 10.9992 22.5927 10.998 22.2736 11.3171L12.0404 21.5491Z"
  />
<path
    d="M22.8521 18.1022C22.6429 18.1022 22.4339 18.0226 22.2748 17.8626L18.4234 14.0111C18.1043 13.692 18.1043 13.1746 18.4234 12.8555C18.7425 12.5364 19.2599 12.5364 19.579 12.8555L23.4305 16.7069C23.7496 17.026 23.7496 17.5433 23.4305 17.8626C23.2704 18.0226 23.0611 18.1022 22.8521 18.1022Z"
  />
<path
    d="M8.15188 23.7238H3.15236C1.80057 23.7238 0.70166 22.6249 0.70166 21.2731V3.30128C0.70166 1.94949 1.80057 0.850586 3.15236 0.850586H18.9457C20.2975 0.850586 21.3964 1.94949 21.3964 3.30128V8.34428C21.3964 8.79521 21.0304 9.16118 20.5795 9.16118C20.1286 9.16118 19.7626 8.79521 19.7626 8.34428V3.30128C19.7626 2.85035 19.3966 2.48438 18.9457 2.48438H3.15236C2.70143 2.48438 2.33546 2.85035 2.33546 3.30128V21.2731C2.33546 21.724 2.70143 22.09 3.15236 22.09H8.15188C8.60281 22.09 8.96878 22.4559 8.96878 22.9069C8.96878 23.3578 8.60281 23.7238 8.15188 23.7238Z"
  />
<path
    d="M20.5795 7.93067H1.51856C1.06763 7.93067 0.70166 7.5647 0.70166 7.11377C0.70166 6.66284 1.06763 6.29688 1.51856 6.29688H20.5795C21.0304 6.29688 21.3964 6.66284 21.3964 7.11377C21.3964 7.5647 21.0304 7.93067 20.5795 7.93067Z"
  />
<path
    d="M16.5714 13.376H1.51856C1.06763 13.376 0.70166 13.01 0.70166 12.5591C0.70166 12.1082 1.06763 11.7422 1.51856 11.7422H16.5714C17.0223 11.7422 17.3883 12.1082 17.3883 12.5591C17.3883 13.01 17.0223 13.376 16.5714 13.376Z"
  />
<path
    d="M11.0491 18.8223H1.51856C1.06763 18.8223 0.70166 18.4563 0.70166 18.0054C0.70166 17.5544 1.06763 17.1885 1.51856 17.1885H11.0491C11.5001 17.1885 11.866 17.5544 11.866 18.0054C11.866 18.4563 11.5001 18.8223 11.0491 18.8223Z"
  />
<path
    d="M11.0493 18.8226C10.5984 18.8226 10.2324 18.4566 10.2324 18.0057V7.11377C10.2324 6.66284 10.5984 6.29688 11.0493 6.29688C11.5003 6.29688 11.8662 6.66284 11.8662 7.11377V18.0057C11.8662 18.4566 11.5003 18.8226 11.0493 18.8226Z"
  />
</svg>
