<svg  viewBox="0 0 16 18" fill="currentColor" xmlns="http://www.w3.org/2000/svg">
    <path fill-rule="evenodd" clip-rule="evenodd" d="M14.402 6.45842H12.054C10.4929 6.45416 9.2251 5.18209 9.2251 3.62355V1.14335C9.2251 0.790378 9.51157 0.503906 9.86454 0.503906C10.2175 0.503906 10.504 0.790378 10.504 1.14335V3.62355C10.504 4.47955 11.1997 5.17697 12.0557 5.17953H14.402C14.755 5.17953 15.0415 5.466 15.0415 5.81898C15.0415 6.17195 14.755 6.45842 14.402 6.45842Z"/>
    <path fill-rule="evenodd" clip-rule="evenodd" d="M7.44804 13.0368C7.09507 13.0368 6.80859 12.7504 6.80859 12.3974V7.24687C6.80859 6.89389 7.09507 6.60742 7.44804 6.60742C7.80101 6.60742 8.08749 6.89389 8.08749 7.24687V12.3974C8.08749 12.7504 7.80101 13.0368 7.44804 13.0368Z"/>
    <path fill-rule="evenodd" clip-rule="evenodd" d="M5.44881 9.89464C5.28596 9.89464 5.12226 9.8324 4.99778 9.70792C4.74797 9.45896 4.74627 9.05483 4.99608 8.80417L6.99457 6.79547C7.235 6.55418 7.6613 6.55418 7.90087 6.79547L9.90106 8.80417C10.15 9.05483 10.1492 9.45896 9.89935 9.70792C9.64869 9.95688 9.24371 9.95688 8.99475 9.70621L7.44815 8.15279L5.90153 9.70621C5.77705 9.8324 5.6125 9.89464 5.44881 9.89464Z"/>
    <path fill-rule="evenodd" clip-rule="evenodd" d="M4.40581 1.79256C2.99306 1.79256 1.81989 2.93674 1.78664 4.34779V13.4867C1.75594 14.937 2.89842 16.1306 4.33504 16.1622H11.2266C12.6495 16.111 13.7758 14.937 13.7664 13.491V5.90889L9.81551 1.79256H4.40581ZM4.30861 17.4411C2.16689 17.395 0.461707 15.6148 0.507747 13.4731V4.33244C0.55805 2.21715 2.30416 0.513672 4.40325 0.513672H10.0875C10.2614 0.513672 10.4277 0.584437 10.5487 0.709769L14.868 5.20891C14.9814 5.32742 15.0453 5.48685 15.0453 5.6514V13.4867C15.059 15.6259 13.3913 17.3643 11.2487 17.4411H4.30861Z"/>
</svg>
