<svg viewBox="0 0 22 22" fill="currentColor" xmlns="http://www.w3.org/2000/svg">
    <path d="M8.46154 0C7.53606 0 6.76923 0.766827 6.76923 1.69231V6.76923C6.76923 7.69471 7.53606 8.46154 8.46154 8.46154H10.1538V10.1538H5.92308C4.52824 10.1538 3.38462 11.2975 3.38462 12.6923V13.5385H1.69231C0.766827 13.5385 0 14.3053 0 15.2308V20.3077C0 21.2332 0.766827 22 1.69231 22H6.76923C7.69471 22 8.46154 21.2332 8.46154 20.3077V15.2308C8.46154 14.3053 7.69471 13.5385 6.76923 13.5385H5.07692V12.6923C5.07692 12.2163 5.44712 11.8462 5.92308 11.8462H16.0769C16.5529 11.8462 16.9231 12.2163 16.9231 12.6923V13.5385H15.2308C14.3053 13.5385 13.5385 14.3053 13.5385 15.2308V20.3077C13.5385 21.2332 14.3053 22 15.2308 22H20.3077C21.2332 22 22 21.2332 22 20.3077V15.2308C22 14.3053 21.2332 13.5385 20.3077 13.5385H18.6154V12.6923C18.6154 11.2975 17.4718 10.1538 16.0769 10.1538H11.8462V8.46154H13.5385C14.4639 8.46154 15.2308 7.69471 15.2308 6.76923V1.69231C15.2308 0.766827 14.4639 0 13.5385 0H8.46154ZM8.46154 1.69231H13.5385V6.76923H8.46154V1.69231ZM1.69231 15.2308H6.76923V20.3077H1.69231V15.2308ZM15.2308 15.2308H20.3077V20.3077H15.2308V15.2308Z"/>
</svg>
